<?xml version="1.0" standalone="no"?>
<!DOCTYPE svg PUBLIC "-//W3C//DTD SVG 20010904//EN"
 "http://www.w3.org/TR/2001/REC-SVG-20010904/DTD/svg10.dtd">
<svg version="1.0" xmlns="http://www.w3.org/2000/svg"
 width="900.000000pt" height="900.000000pt" viewBox="0 0 900.000000 900.000000"
 preserveAspectRatio="xMidYMid meet">
<metadata>
Created by potrace 1.14, written by Peter Selinger 2001-2017
</metadata>
<g transform="translate(0.000000,900.000000) scale(0.100000,-0.100000)"
fill="#000000" stroke="none">
<path d="M4477 6683 c3 -7 0 -13 -7 -13 -6 0 -8 -5 -4 -11 10 -16 11 -99 1
-99 -5 0 -5 -5 -2 -11 9 -13 12 -79 5 -79 -3 0 -3 -25 0 -55 3 -30 2 -55 -3
-55 -4 0 -5 -5 -2 -11 11 -17 11 -89 0 -89 -5 0 -3 -5 5 -10 13 -8 13 -10 0
-10 -10 0 -11 -3 -4 -10 7 -7 8 -29 4 -55 -4 -24 -3 -42 2 -39 4 3 11 -2 14
-11 6 -13 8 -14 15 -3 7 10 9 11 9 0 0 -7 4 -11 9 -8 5 4 8 31 8 61 -1 30 0
55 3 55 3 0 3 32 0 70 -3 39 -3 70 0 70 3 0 3 36 0 80 -3 44 -3 80 0 80 7 0 3
87 -5 99 -3 6 -1 11 6 11 10 0 10 3 2 11 -6 6 -9 18 -6 25 3 8 1 14 -3 15 -5
0 -19 2 -31 3 -14 2 -19 -2 -16 -11z"/>
<path d="M3374 6511 c0 -20 4 -39 10 -43 7 -5 6 -8 -3 -8 -9 0 -6 -7 9 -20 15
-13 18 -20 9 -20 -11 0 -11 -2 1 -10 11 -7 11 -10 2 -10 -9 0 -10 -5 -2 -19 5
-11 7 -27 4 -36 -4 -10 -2 -15 7 -13 8 2 15 -6 15 -17 1 -11 3 -24 4 -30 1 -5
2 -25 2 -44 0 -22 2 -30 7 -22 12 19 22 -1 17 -36 -3 -31 10 -49 34 -47 40 3
41 4 30 23 -6 13 -7 22 0 26 5 3 6 13 1 23 -4 9 -14 31 -23 48 -10 19 -12 38
-7 52 5 14 4 22 -2 22 -6 0 -8 4 -5 9 3 5 0 11 -8 14 -9 4 -13 16 -12 32 2 14
-1 28 -6 31 -4 3 -6 9 -3 14 3 5 0 20 -7 32 -14 27 -15 30 -17 63 0 14 -6 25
-12 25 -5 0 -8 -4 -4 -9 3 -5 1 -13 -5 -16 -6 -4 -9 -1 -8 5 2 7 -4 14 -12 15
-11 2 -15 -7 -16 -34z"/>
<path d="M5596 6535 c-8 -8 -20 -15 -26 -15 -8 0 -8 -6 0 -20 8 -14 8 -20 0
-20 -6 0 -8 -4 -5 -10 3 -5 -2 -21 -11 -35 -9 -14 -14 -34 -11 -45 3 -11 2
-20 -2 -20 -4 0 -7 -9 -8 -20 -1 -11 3 -20 9 -20 5 0 8 -6 5 -14 -8 -20 4 -28
21 -13 13 9 14 9 8 0 -4 -7 -5 -13 -1 -13 7 0 28 50 29 70 1 8 -3 18 -9 22 -6
5 -5 8 3 8 7 0 10 5 7 10 -4 6 -1 9 7 8 8 -2 13 7 13 27 0 17 7 36 15 43 11
10 11 12 1 6 -10 -5 -12 -3 -5 7 15 24 14 42 -1 29 -11 -9 -12 -7 -8 9 6 25
-9 27 -31 6z"/>
<path d="M5450 6024 c-6 -14 -14 -22 -20 -19 -5 3 -10 1 -10 -4 0 -6 5 -11 12
-11 9 0 9 -3 1 -11 -8 -8 -8 -20 -3 -35 8 -19 6 -22 -7 -17 -12 5 -15 2 -10
-9 3 -9 0 -19 -7 -21 -8 -3 -12 -21 -10 -51 1 -25 -2 -49 -8 -52 -7 -5 -8 -2
-3 6 5 8 4 11 -2 7 -6 -4 -10 -27 -10 -52 1 -25 -1 -45 -6 -45 -4 0 -2 -8 4
-18 11 -18 48 -25 50 -10 3 19 5 24 12 35 4 6 1 14 -5 16 -10 4 -10 6 -1 6 7
1 10 8 7 16 -4 10 0 15 12 16 11 0 14 3 7 6 -10 3 -9 8 2 20 10 10 12 19 6 27
-12 14 -2 66 14 72 7 3 12 19 10 39 -1 21 2 32 8 28 6 -4 8 0 4 11 -4 9 -3 15
2 12 5 -3 11 1 15 9 3 8 0 15 -7 15 -8 0 -6 4 3 10 11 7 11 10 2 10 -7 0 -11
4 -8 8 2 4 -6 9 -20 10 -18 1 -27 -5 -34 -24z"/>
<path d="M4480 5935 c-7 -8 -10 -24 -7 -35 3 -11 1 -20 -5 -20 -5 0 -6 -5 -3
-11 10 -15 11 -109 2 -109 -5 0 -5 -5 -2 -11 10 -15 11 -109 2 -109 -5 0 -5
-5 -2 -11 10 -15 11 -109 2 -109 -5 0 -5 -5 -2 -11 10 -15 11 -109 2 -109 -5
0 -5 -5 -2 -11 10 -15 11 -109 2 -109 -5 0 -5 -5 -2 -11 9 -13 12 -79 5 -79
-3 0 -3 -25 0 -55 3 -30 2 -55 -3 -55 -4 0 -5 -5 -2 -11 10 -15 11 -109 2
-109 -5 0 -5 -5 -2 -11 10 -15 11 -109 2 -109 -5 0 -5 -5 -2 -11 10 -15 11
-109 2 -109 -5 0 -5 -5 -2 -11 10 -15 11 -109 2 -109 -5 0 -5 -5 -2 -11 10
-15 11 -109 2 -109 -5 0 -5 -5 -2 -11 10 -15 11 -109 2 -109 -5 0 -5 -5 -2
-11 10 -15 11 -109 2 -109 -5 0 -5 -5 -2 -11 10 -15 11 -109 2 -109 -4 0 -4
-7 1 -16 5 -9 6 -33 2 -55 -5 -25 -4 -36 3 -32 7 4 8 -1 3 -13 -4 -10 -4 -15
0 -11 4 4 13 2 21 -4 9 -9 13 -8 13 0 0 6 8 11 18 11 14 0 15 2 2 10 -13 9
-13 10 0 10 9 0 11 3 5 8 -11 8 -16 42 -6 42 3 0 4 32 1 70 -3 39 -3 70 1 70
3 0 3 23 -1 50 -4 28 -4 50 -1 50 4 0 4 32 1 70 -3 39 -3 70 0 70 3 0 3 36 0
80 -3 44 -2 80 1 80 3 0 3 23 -1 50 -4 28 -4 50 -1 50 4 0 4 32 1 70 -3 39 -3
70 1 70 3 0 3 23 -1 50 -4 28 -4 50 -1 50 4 0 4 32 1 70 -3 39 -3 70 0 70 3 0
3 36 0 80 -3 44 -2 80 1 80 3 0 3 23 -1 50 -4 28 -4 50 -1 50 4 0 4 32 1 70
-3 39 -3 70 1 70 3 0 3 23 -1 50 -4 28 -4 50 -1 50 4 0 4 32 1 70 -3 39 -3 70
0 70 3 0 3 36 0 80 -3 44 -2 81 2 83 10 3 -14 49 -28 54 -6 2 -17 -3 -24 -12z"/>
<path d="M3574 5835 c3 -10 -1 -15 -12 -15 -10 0 -13 -3 -7 -8 12 -8 16 -26
17 -67 0 -16 9 -41 18 -55 12 -18 15 -32 9 -47 -6 -16 -5 -23 3 -23 6 0 9 -3
5 -6 -3 -4 4 -15 16 -26 12 -11 16 -17 10 -13 -7 3 -13 1 -13 -4 0 -6 6 -11
13 -11 7 0 8 -3 2 -8 -6 -4 -10 -21 -10 -38 0 -23 4 -30 14 -26 9 3 12 1 7 -6
-4 -7 -3 -12 3 -12 5 0 8 -9 6 -20 -2 -11 0 -22 6 -25 5 -4 9 -1 9 6 0 10 3
10 12 1 15 -15 32 -16 23 -2 -3 6 -2 10 2 10 5 0 8 12 7 28 -1 15 -3 33 -3 40
-1 7 -5 10 -11 7 -11 -7 -12 0 -12 62 0 24 -4 41 -8 38 -10 -6 -22 24 -14 36
3 5 1 9 -4 9 -5 0 -8 10 -7 23 2 27 -5 48 -14 43 -6 -4 -11 28 -14 91 0 6 -6
9 -14 6 -7 -3 -16 2 -19 11 -3 9 -11 16 -16 16 -6 0 -8 -7 -4 -15z"/>
<path d="M1460 5430 c-9 -6 -10 -9 0 -15 9 -6 9 -10 -1 -16 -11 -7 -11 -9 -1
-9 7 0 10 -4 7 -10 -3 -5 1 -10 9 -10 9 0 16 -7 16 -16 0 -11 5 -14 16 -10 12
4 15 2 10 -9 -3 -9 0 -15 8 -15 13 0 72 -60 59 -60 -5 0 3 -6 16 -13 13 -6 23
-16 23 -22 0 -5 8 -13 19 -17 11 -4 17 -12 14 -18 -3 -5 -2 -10 3 -10 14 0 52
-36 45 -44 -3 -3 -2 -6 3 -6 14 0 64 -46 64 -59 0 -7 4 -10 9 -6 5 3 12 -4 16
-14 4 -12 12 -18 21 -14 10 4 12 0 8 -11 -4 -11 -1 -16 10 -16 9 0 16 -7 16
-17 0 -9 3 -14 6 -10 8 7 28 -12 37 -35 3 -10 13 -18 21 -18 8 0 18 -9 21 -21
4 -13 12 -18 21 -15 9 3 12 1 9 -4 -3 -6 1 -13 9 -16 8 -3 18 -14 21 -25 4
-11 11 -16 17 -13 8 5 9 1 5 -10 -4 -10 -3 -15 4 -11 12 8 41 -14 33 -26 -3
-5 2 -9 10 -9 9 0 16 -7 16 -16 0 -8 3 -13 8 -11 9 6 63 -49 55 -57 -4 -3 1
-6 10 -6 10 0 17 -7 17 -15 0 -8 7 -15 15 -15 9 0 18 -7 21 -15 4 -8 10 -12
15 -9 5 3 6 -2 3 -10 -4 -11 0 -16 10 -16 9 0 16 -7 16 -17 0 -9 3 -14 6 -10
8 8 44 -25 44 -40 0 -7 6 -13 14 -13 8 0 18 -9 21 -20 4 -11 10 -18 15 -15 4
3 14 -3 21 -12 12 -14 12 -16 0 -8 -10 5 -12 4 -7 -3 4 -7 14 -12 22 -12 8 0
12 -5 9 -10 -4 -6 3 -8 17 -6 13 3 26 5 31 5 4 1 7 13 7 28 0 14 -2 24 -5 21
-8 -7 -93 75 -88 85 2 4 -3 7 -12 7 -9 0 -13 5 -10 10 3 6 -1 10 -9 10 -9 0
-16 6 -16 14 0 8 -13 23 -30 33 -16 9 -30 23 -30 29 0 7 -9 16 -20 19 -11 3
-20 13 -20 21 0 8 -4 12 -10 9 -5 -3 -10 1 -10 9 0 9 -6 15 -12 13 -7 -1 -12
4 -11 11 2 6 -1 12 -7 12 -12 0 -70 60 -70 72 0 5 -4 6 -10 3 -5 -3 -10 2 -10
11 0 10 -3 14 -6 11 -7 -7 -44 30 -44 45 0 4 -8 8 -17 8 -15 0 -16 2 -3 10 12
8 11 10 -7 10 -14 0 -23 6 -23 15 0 8 -6 14 -12 13 -7 -2 -12 2 -11 9 2 6 -6
15 -17 18 -11 4 -20 13 -20 21 0 8 -4 12 -10 9 -5 -3 -10 1 -10 9 0 9 -6 15
-12 14 -8 -2 -12 5 -10 15 2 9 -1 17 -5 16 -21 -4 -33 2 -33 17 0 8 -4 12 -10
9 -5 -3 -10 1 -10 9 0 8 -9 18 -20 21 -11 4 -18 11 -15 16 4 5 -1 9 -9 9 -9 0
-16 7 -16 16 0 8 -4 12 -10 9 -5 -3 -10 1 -10 9 0 8 -9 18 -20 21 -11 4 -18
10 -15 14 2 4 -7 14 -20 21 -14 7 -25 19 -25 27 0 7 -11 18 -25 25 -13 6 -22
15 -19 19 3 5 1 9 -5 9 -13 0 -61 48 -61 60 0 6 -7 10 -15 10 -8 0 -15 4 -15
9 0 12 -35 20 -50 11z"/>
<path d="M7469 5400 c-19 -21 -37 -36 -41 -33 -5 2 -8 -3 -8 -11 0 -9 -7 -16
-15 -16 -8 0 -14 -6 -12 -12 1 -7 -6 -12 -15 -12 -10 1 -15 -2 -13 -7 8 -11
-33 -51 -45 -44 -6 3 -7 -1 -4 -9 3 -9 1 -16 -6 -16 -6 0 -8 -5 -4 -12 6 -9 3
-9 -9 0 -14 12 -16 11 -12 -7 2 -12 0 -19 -6 -16 -5 4 -9 1 -9 -5 0 -6 -4 -8
-10 -5 -5 3 -10 1 -10 -4 0 -16 -32 -51 -42 -45 -7 5 -12 -10 -9 -28 0 -4 -6
-5 -15 -1 -9 3 -14 0 -12 -8 2 -8 -3 -13 -9 -11 -7 1 -13 -2 -13 -7 0 -13 -48
-61 -61 -61 -7 0 -10 -3 -7 -6 8 -7 -55 -73 -64 -67 -5 2 -9 -1 -9 -6 -1 -6
-2 -15 -3 -20 0 -5 -5 -13 -10 -18 -5 -5 -6 -2 -2 7 6 12 5 12 -6 -1 -7 -8
-21 -18 -30 -22 -10 -3 -18 -13 -18 -22 0 -8 -4 -15 -9 -15 -5 0 -11 -9 -14
-20 -3 -11 -12 -20 -21 -20 -9 0 -16 -4 -16 -10 0 -5 -6 -10 -14 -10 -8 0 -18
-4 -21 -10 -3 -6 1 -7 12 -4 11 3 9 0 -5 -8 -12 -8 -19 -17 -16 -21 4 -4 0 -7
-9 -7 -9 0 -24 -13 -33 -29 -10 -17 -23 -27 -31 -24 -9 4 -11 0 -7 -11 4 -9 3
-16 -2 -14 -13 4 -64 -43 -58 -54 3 -4 -2 -8 -10 -8 -9 0 -16 -5 -16 -11 0 -5
-4 -7 -10 -4 -5 3 -10 0 -10 -8 0 -17 -26 -41 -32 -30 -3 4 -4 3 -2 -3 3 -14
-32 -45 -41 -36 -4 4 -5 2 -3 -3 2 -6 -3 -17 -10 -25 -7 -8 -20 -24 -28 -35
-14 -19 -15 -19 -4 5 11 24 10 24 -4 6 -9 -11 -16 -24 -16 -29 0 -4 -4 -5 -10
-2 -6 3 -7 -1 -4 -10 4 -10 2 -15 -6 -13 -16 4 -23 -39 -8 -48 7 -5 9 -2 4 7
-4 8 -1 7 6 -2 11 -14 17 -15 31 -4 9 6 14 14 11 17 -2 3 2 8 10 11 11 4 13 1
10 -11 -3 -9 4 1 16 23 23 45 46 72 34 40 -7 -17 -6 -18 8 -5 9 8 14 17 12 19
-5 5 23 31 35 31 6 0 8 6 5 14 -3 8 0 17 7 22 8 4 10 3 5 -4 -4 -8 -2 -10 8
-6 9 3 12 12 9 22 -4 9 -3 14 1 10 9 -7 66 47 66 62 0 6 5 10 11 10 5 0 7 -6
4 -12 -3 -7 0 -4 7 6 7 10 21 26 31 35 9 8 17 21 17 28 0 6 5 15 12 19 7 4 8
3 4 -4 -4 -8 -2 -10 8 -6 9 3 12 12 9 22 -4 9 -3 14 2 10 4 -4 29 14 54 40 25
26 50 45 55 44 5 -2 6 4 3 13 -4 9 -1 15 9 15 8 0 19 11 26 25 6 13 15 22 20
19 4 -3 11 2 14 10 3 9 11 13 17 9 5 -3 7 -2 4 3 -6 11 8 39 20 39 4 0 22 13
38 29 17 16 24 26 16 21 -10 -5 -12 -4 -7 3 4 7 14 12 22 12 8 0 12 5 9 10 -3
6 -1 11 4 11 6 1 17 2 24 3 6 1 11 10 9 20 -3 14 1 17 13 13 11 -5 15 -2 13
11 -2 11 3 17 14 16 10 -1 17 1 16 5 -2 19 4 31 15 28 6 -1 11 4 10 11 -3 11
10 16 30 13 5 -1 6 2 4 6 -9 14 21 46 34 37 8 -4 10 -3 5 4 -4 7 -2 12 3 12 6
0 11 7 11 16 0 8 5 12 10 9 6 -3 10 1 10 9 0 8 5 18 12 22 7 5 8 2 3 -7 -7
-12 -6 -12 6 -1 8 7 14 17 14 23 0 5 5 9 10 10 6 0 15 10 22 22 7 12 12 19 13
15 0 -5 8 0 18 10 11 9 17 20 15 25 -2 4 6 11 19 16 13 6 19 10 15 10 -4 1 -3
9 2 20 8 15 6 20 -13 29 -20 9 -27 5 -57 -28z"/>
<path d="M5289 5424 c-1 -2 -2 -9 -3 -14 0 -6 -5 -14 -11 -18 -17 -12 -28 -82
-13 -82 5 0 3 -6 -4 -14 -7 -8 -16 -12 -20 -9 -5 2 -8 -15 -9 -39 -1 -59 -6
-80 -20 -88 -6 -4 -9 -12 -5 -18 3 -6 0 -13 -6 -15 -10 -4 -9 -6 1 -6 11 -1
11 -4 1 -16 -9 -10 -9 -15 -1 -15 6 0 11 -5 11 -11 0 -5 -4 -8 -8 -5 -5 3 -9
-1 -9 -9 0 -8 4 -12 9 -9 4 3 8 -1 8 -9 0 -7 7 -14 15 -14 8 0 12 3 10 7 -2 3
6 15 18 25 13 12 17 20 9 23 -8 2 -7 11 5 29 10 14 19 49 21 77 2 28 8 56 14
61 7 7 9 6 4 -2 -3 -6 -2 -14 3 -17 5 -3 8 10 6 29 -1 20 3 35 9 35 6 0 4 5
-4 10 -13 9 -13 10 0 10 9 0 11 3 5 8 -12 9 -16 44 -4 36 5 -3 9 0 9 6 0 6 4
9 8 6 4 -2 8 4 8 15 0 10 -6 19 -14 19 -7 0 -11 4 -8 8 2 4 -4 9 -15 9 -10 1
-20 0 -20 -3z"/>
<path d="M2785 5354 c1 -14 -2 -27 -7 -30 -6 -4 -6 -9 1 -13 6 -4 12 -17 14
-29 2 -12 7 -25 12 -29 4 -5 5 -2 0 6 -6 10 -4 12 4 7 7 -5 10 -15 7 -23 -3
-8 -2 -12 2 -10 10 7 27 -15 27 -33 0 -8 -4 -19 -10 -23 -6 -5 0 -7 12 -4 12
3 22 2 21 -2 -2 -22 4 -32 17 -27 8 3 14 2 14 -2 -3 -21 3 -31 15 -26 8 3 13
16 11 30 -1 13 2 24 7 24 4 0 1 11 -8 25 -9 14 -21 22 -27 18 -6 -4 -8 0 -4
10 9 23 -2 49 -17 40 -6 -3 -8 -3 -4 2 4 4 3 14 -3 22 -6 7 -8 13 -5 13 4 0 0
7 -8 16 -9 8 -13 20 -10 26 5 7 2 8 -6 3 -10 -6 -12 -4 -7 8 3 9 3 16 -1 16
-4 -1 -9 0 -12 1 -28 10 -38 6 -35 -16z"/>
<path d="M6194 5368 c-5 -8 -16 -17 -25 -20 -11 -4 -15 -16 -14 -33 3 -22 0
-25 -18 -21 -12 3 -17 3 -10 0 9 -4 9 -11 1 -29 -6 -14 -14 -22 -18 -20 -5 3
-11 -2 -14 -11 -4 -9 -2 -13 5 -8 7 4 7 0 -1 -15 -6 -12 -15 -19 -19 -17 -4 3
-8 -1 -9 -9 -1 -8 -3 -22 -4 -30 -1 -9 -7 -14 -15 -11 -8 3 -12 2 -8 -3 7 -12
-5 -42 -15 -36 -4 3 -11 -2 -14 -11 -4 -10 -2 -13 7 -8 9 5 9 4 0 -6 -14 -15
0 -50 20 -50 7 0 6 4 -3 10 -8 5 -10 10 -4 10 5 0 15 -5 22 -12 9 -9 12 -9 13
3 1 7 1 18 0 23 -1 5 5 6 14 3 14 -6 19 5 18 41 -1 6 6 12 14 12 8 0 11 5 8
10 -3 6 -2 10 4 10 6 0 7 8 4 17 -5 12 -2 15 10 10 9 -3 16 -3 15 1 -3 10 20
72 27 72 3 0 3 -5 -1 -12 -4 -7 -3 -8 5 -4 6 4 9 12 6 17 -8 12 20 40 31 31 5
-4 2 1 -5 11 -10 12 -10 17 -2 17 7 0 10 4 7 9 -3 5 0 11 8 14 15 6 16 31 1
44 -4 4 -5 2 -1 -4 11 -19 -5 -16 -19 4 -11 14 -13 14 -21 1z"/>
<path d="M1530 5306 c0 -2 8 -10 18 -17 15 -13 16 -12 3 4 -13 16 -21 21 -21
13z"/>
<path d="M3755 5120 c-11 -5 -15 -9 -10 -9 6 -1 3 -6 -5 -11 -10 -6 -11 -10
-2 -10 6 0 12 -9 12 -20 0 -11 5 -20 12 -20 6 0 9 -3 5 -6 -3 -3 -2 -17 3 -30
6 -14 6 -24 1 -24 -5 0 -7 -9 -4 -20 3 -11 9 -20 13 -20 4 0 11 -7 14 -16 4
-10 2 -13 -7 -8 -9 6 -9 4 -1 -7 6 -8 10 -24 9 -37 -1 -13 3 -26 8 -29 6 -3 7
-1 3 5 -5 8 -2 10 9 6 12 -5 13 -9 4 -20 -6 -8 -7 -14 -2 -14 5 0 9 -18 7 -39
-1 -24 4 -47 13 -58 8 -10 12 -12 8 -6 -4 9 -1 11 9 7 9 -3 13 -10 10 -15 -3
-5 6 -4 20 2 14 7 23 16 20 20 -3 5 1 9 8 9 7 0 2 7 -11 16 -15 11 -21 23 -18
35 3 11 0 19 -6 19 -7 0 -5 5 3 10 12 8 13 11 1 19 -11 7 -11 9 0 14 11 4 11
6 1 6 -7 1 -10 5 -7 11 3 5 0 7 -8 5 -10 -4 -13 5 -12 36 1 23 -5 47 -12 55
-17 16 -17 27 0 19 6 -4 5 -1 -3 7 -9 8 -15 30 -15 55 0 22 -3 39 -7 36 -8 -4
-12 13 -9 31 1 5 -6 3 -15 -5 -12 -9 -15 -9 -10 -1 8 14 0 14 -29 2z"/>
<path d="M2970 5023 c0 -7 -4 -13 -8 -13 -5 0 -9 -7 -9 -15 0 -8 4 -12 9 -9 4
3 8 -2 8 -11 0 -9 5 -13 11 -10 6 4 10 1 8 -6 -3 -27 1 -40 11 -34 6 4 10 3 9
-2 -4 -21 2 -33 16 -33 8 0 15 -5 15 -11 0 -5 -6 -7 -12 -3 -10 6 -10 5 -1 -8
7 -8 9 -19 5 -23 -4 -5 -2 -6 3 -3 15 8 31 -13 29 -39 -1 -13 4 -23 11 -23 7
0 19 -8 26 -17 10 -11 10 -14 2 -9 -21 12 -15 -4 10 -26 12 -11 15 -17 7 -13
-8 4 -5 -2 8 -13 12 -11 22 -27 22 -34 0 -8 8 -23 18 -34 9 -10 17 -29 16 -41
-1 -12 4 -19 10 -17 12 5 38 -44 30 -57 -3 -5 2 -9 10 -9 9 0 16 -9 16 -20 0
-11 5 -20 10 -20 6 0 10 -8 8 -17 -2 -12 3 -18 14 -17 10 1 16 -2 13 -6 -9
-14 29 -79 45 -80 13 0 13 -1 0 -10 -10 -6 -11 -10 -2 -10 6 0 12 -9 12 -21 0
-15 5 -19 16 -15 9 4 13 2 8 -5 -4 -6 0 -15 7 -20 12 -7 12 -9 0 -9 -8 0 -5
-7 8 -17 12 -10 23 -28 24 -40 0 -12 5 -19 9 -17 7 5 12 -10 9 -28 0 -5 6 -8
15 -8 8 0 13 -4 10 -8 -3 -5 2 -20 12 -33 9 -13 17 -29 18 -36 1 -7 9 -20 18
-29 9 -8 14 -19 11 -24 -3 -5 3 -15 13 -22 19 -13 22 -18 22 -39 0 -5 5 -7 11
-3 7 4 10 1 7 -7 -2 -7 4 -23 14 -33 10 -11 16 -26 14 -33 -3 -7 -1 -13 5 -13
6 0 7 -4 4 -10 -3 -6 1 -7 10 -4 11 5 14 2 9 -10 -3 -9 -1 -16 5 -16 6 0 8 -7
4 -17 -4 -11 -3 -14 5 -9 7 4 13 2 13 -3 1 -6 3 -15 4 -21 1 -5 3 -13 4 -16 0
-4 7 -1 15 5 11 9 15 9 19 -1 3 -8 9 -3 15 12 6 17 6 29 0 38 -6 6 -7 12 -2
12 4 0 -1 7 -12 16 -10 8 -13 12 -5 9 9 -5 8 1 -4 19 -10 14 -21 26 -26 26 -5
0 -6 7 -3 15 4 8 -1 17 -10 21 -9 3 -16 17 -16 31 0 18 -4 24 -15 19 -8 -3
-14 -2 -13 2 1 4 -3 17 -10 30 -7 12 -10 28 -6 35 4 6 4 9 -1 5 -11 -10 -44
34 -40 54 2 10 -2 18 -8 18 -7 0 -21 10 -31 22 -15 17 -15 20 -3 15 11 -4 14
-2 11 8 -3 7 -12 16 -21 19 -9 4 -13 13 -9 22 3 8 2 12 -4 9 -10 -6 -14 7 -11
33 1 6 -6 12 -15 12 -10 0 -14 3 -11 7 4 3 -1 12 -11 20 -9 8 -11 12 -5 8 8
-4 11 -1 7 9 -3 8 -12 17 -19 20 -8 3 -12 14 -10 26 2 11 1 19 -3 16 -7 -4
-40 26 -34 31 7 8 1 23 -8 18 -9 -5 -12 8 -9 31 0 4 -3 10 -8 13 -16 12 -39
45 -25 37 11 -7 11 -4 0 13 -7 12 -18 19 -23 17 -6 -2 -12 5 -12 15 -1 12 3
17 10 13 7 -3 1 4 -12 15 -13 12 -19 21 -15 22 5 0 -1 4 -12 9 -15 6 -21 16
-19 34 2 17 -2 26 -11 26 -13 0 -19 13 -15 34 1 5 -7 15 -19 23 -11 8 -19 22
-18 31 2 10 -3 16 -11 14 -9 -2 -12 4 -9 22 4 19 1 24 -14 21 -14 -3 -17 1
-14 21 3 17 0 24 -10 24 -8 0 -12 5 -9 10 3 6 1 10 -5 10 -6 0 -9 4 -6 9 3 5
-1 14 -9 21 -8 7 -15 19 -15 26 0 8 -4 14 -10 14 -5 0 -10 7 -10 16 0 9 -5 12
-12 8 -9 -5 -8 -2 1 10 13 15 12 18 -7 23 -12 3 -22 11 -22 19 0 7 -9 12 -20
11 -11 -1 -20 -7 -20 -14z"/>
<path d="M5940 4923 c0 -6 -9 -14 -19 -18 -13 -4 -18 -13 -16 -26 2 -11 0 -17
-4 -14 -12 7 -33 -20 -23 -29 4 -4 0 -13 -8 -20 -8 -6 -21 -22 -28 -35 -11
-19 -11 -22 0 -16 7 3 4 -1 -7 -10 -11 -9 -19 -21 -17 -27 4 -13 -18 -39 -28
-33 -5 3 -6 -5 -2 -17 3 -11 1 -19 -4 -16 -5 3 -15 0 -22 -8 -7 -8 -8 -14 -3
-14 6 0 8 -7 5 -15 -4 -8 -10 -12 -15 -9 -5 3 -9 -6 -9 -20 0 -14 -5 -28 -12
-32 -7 -5 -8 -2 -3 7 6 10 5 11 -4 3 -7 -6 -13 -21 -14 -33 -1 -14 -6 -20 -15
-16 -9 3 -12 -1 -7 -15 4 -12 2 -20 -5 -20 -6 0 -8 -4 -5 -10 6 -9 -8 -15 -29
-11 -5 1 -4 -5 4 -13 8 -11 9 -16 1 -16 -6 0 -11 -5 -11 -11 0 -5 5 -7 10 -4
6 3 10 4 10 0 0 -3 -12 -10 -27 -16 -16 -6 -23 -13 -16 -16 9 -3 7 -11 -7 -25
-11 -12 -17 -25 -14 -30 3 -4 -2 -8 -11 -8 -11 0 -15 -5 -11 -15 3 -8 1 -15
-4 -15 -5 0 -6 -7 -3 -17 4 -11 3 -14 -5 -9 -7 4 -12 3 -12 -2 0 -5 -11 -26
-25 -46 -14 -21 -21 -35 -15 -31 6 3 7 -1 4 -10 -4 -9 -13 -14 -20 -11 -8 3
-11 0 -7 -10 3 -7 0 -14 -6 -14 -6 0 -11 -7 -11 -15 0 -8 -4 -15 -10 -15 -5 0
-7 -6 -4 -14 3 -7 -2 -16 -11 -20 -10 -4 -15 -12 -11 -22 4 -10 2 -13 -6 -8
-7 5 -9 0 -6 -14 4 -14 2 -19 -8 -15 -9 3 -12 -2 -9 -15 2 -11 -5 -28 -16 -38
-10 -9 -19 -24 -19 -32 0 -8 -6 -12 -14 -9 -10 4 -14 0 -11 -14 2 -10 -5 -28
-17 -38 -11 -11 -17 -24 -13 -30 3 -6 1 -11 -5 -11 -13 0 -29 -40 -23 -57 9
-24 34 -22 61 5 16 15 27 32 25 38 -2 5 6 20 18 32 11 13 18 29 15 37 -3 9 1
12 13 10 14 -3 17 1 14 16 -3 11 1 21 10 25 9 3 14 14 12 24 -2 10 3 21 11 24
9 4 12 11 8 18 -5 8 0 7 11 -2 17 -14 18 -14 6 8 -11 20 -8 26 12 23 5 -1 6 3
2 9 -3 5 -1 10 5 10 8 0 8 6 0 20 -6 11 -7 20 -3 19 4 -1 17 -1 28 0 17 1 18
3 5 11 -10 6 -11 10 -2 10 6 0 12 7 12 16 0 8 4 13 9 10 5 -4 8 5 7 18 -2 19
1 24 16 21 10 -2 16 0 12 6 -3 5 0 17 8 26 9 12 9 15 1 9 -9 -5 -11 -2 -7 8 3
9 10 14 14 11 9 -6 26 34 21 49 -1 5 6 3 15 -5 16 -13 16 -12 7 6 -8 16 -6 24
10 40 11 11 16 14 12 6 -5 -9 -4 -12 2 -8 6 4 9 18 8 32 -2 14 1 23 6 20 4 -3
11 6 15 20 3 14 10 25 16 25 5 0 7 4 4 9 -3 5 1 11 9 15 8 3 12 12 9 21 -4 10
-2 15 7 13 8 -2 13 6 14 19 0 12 4 25 9 30 6 5 6 2 1 -7 -8 -13 -6 -13 7 -2 9
7 15 22 13 33 -2 11 0 17 4 14 10 -6 26 25 30 56 0 5 6 7 11 4 6 -3 10 3 10
15 0 11 7 23 15 26 8 4 15 10 15 16 0 5 -6 6 -12 3 -7 -4 -5 0 4 8 10 8 15 17
11 20 -3 4 2 7 13 7 16 0 17 2 4 10 -10 6 -11 10 -2 10 6 0 12 7 12 15 0 8 6
15 14 15 9 0 13 9 11 25 -1 16 3 25 12 25 8 0 11 5 8 10 -3 6 -2 10 3 10 6 0
12 15 14 34 2 19 0 32 -5 29 -5 -3 -13 1 -18 8 -6 9 -9 10 -9 2z"/>
<path d="M6890 4840 c0 -5 5 -10 11 -10 5 0 7 5 4 10 -3 6 -8 10 -11 10 -2 0
-4 -4 -4 -10z"/>
<path d="M5119 4799 c-10 -6 -11 -9 -1 -9 10 0 10 -3 0 -14 -7 -8 -16 -12 -20
-10 -3 2 -5 -10 -4 -26 1 -17 -1 -30 -4 -30 -4 0 -6 -15 -5 -34 2 -25 -2 -33
-11 -29 -9 3 -12 -2 -9 -16 2 -12 0 -21 -5 -21 -5 0 -7 -6 -4 -14 3 -8 0 -17
-6 -21 -8 -5 -8 -11 1 -21 9 -12 9 -13 -3 -9 -12 5 -14 -4 -14 -45 1 -27 -2
-50 -6 -50 -16 0 5 -28 24 -33 14 -4 22 0 25 14 3 10 9 19 12 19 4 0 7 10 6
22 -1 13 4 29 12 36 7 8 11 18 8 23 -4 5 -1 9 5 9 7 0 8 6 1 19 -8 14 -6 23 9
36 16 15 18 21 7 33 -10 13 -9 14 2 7 11 -6 13 -2 9 19 -3 14 -1 26 5 26 5 0
4 6 -2 14 -9 11 -8 17 7 28 18 13 27 72 8 61 -5 -3 -14 1 -21 10 -7 11 -16 13
-26 6z"/>
<path d="M3895 4780 c3 -5 8 -10 11 -10 2 0 4 5 4 10 0 6 -5 10 -11 10 -5 0
-7 -4 -4 -10z"/>
<path d="M789 4547 c-1 -7 -1 -15 0 -19 0 -5 -5 -8 -11 -9 -7 0 -2 -5 11 -10
13 -5 21 -15 18 -22 -3 -8 5 -14 22 -15 14 -1 31 -9 38 -18 6 -9 17 -13 22 -9
6 3 15 -4 20 -17 6 -13 10 -17 10 -10 1 8 9 6 23 -8 12 -11 27 -20 34 -20 6 0
23 -9 38 -21 14 -11 26 -17 27 -12 0 4 4 -2 9 -14 7 -16 14 -20 31 -16 14 4
20 2 16 -4 -4 -6 3 -13 14 -16 16 -4 19 -2 15 10 -5 13 -4 13 8 4 11 -9 14 -6
18 18 3 18 0 29 -6 28 -6 -1 -10 3 -9 10 2 7 -3 10 -11 7 -7 -3 -20 2 -29 10
-8 8 -21 17 -28 18 -19 4 -39 24 -40 40 0 7 -4 4 -9 -7 -5 -11 -9 -14 -9 -7
-1 6 -8 12 -17 12 -10 0 -14 6 -11 14 4 10 -1 13 -19 11 -16 -1 -28 4 -35 17
-6 11 -17 17 -25 14 -13 -5 -19 6 -15 27 1 5 -3 6 -9 2 -6 -4 -16 -2 -23 4
-20 16 -67 21 -68 8z"/>
<path d="M8197 4553 c-4 -3 -1 -13 5 -22 9 -11 6 -10 -9 2 -20 18 -22 18 -32
0 -6 -10 -11 -12 -11 -5 0 8 -6 6 -18 -5 -11 -10 -17 -22 -14 -28 3 -5 -1 -5
-8 2 -13 12 -43 6 -35 -7 7 -11 -31 -23 -44 -15 -6 3 -8 -3 -6 -14 2 -13 -1
-18 -10 -15 -7 3 -20 -5 -29 -18 -14 -20 -16 -20 -16 -4 0 16 -4 14 -21 -8
-12 -15 -24 -25 -27 -22 -3 3 -11 -2 -19 -12 -8 -9 -12 -11 -8 -5 4 8 1 11 -9
7 -9 -3 -14 -11 -13 -17 1 -6 -5 -11 -13 -12 -8 0 -14 -10 -14 -22 0 -13 3
-23 8 -22 5 0 13 -5 17 -13 7 -10 9 -10 9 0 0 7 4 11 9 7 6 -3 14 2 19 11 5 9
21 17 35 17 14 0 25 4 24 10 -2 10 2 12 36 16 8 1 7 4 -3 11 -13 8 -13 10 3
11 37 3 42 5 39 19 -3 11 0 11 12 0 13 -10 16 -10 16 4 0 9 3 15 8 15 20 -3
32 2 30 14 -2 7 9 12 28 12 19 0 30 4 27 11 -2 6 8 15 22 18 19 5 25 11 21 23
-5 13 -4 14 9 3 13 -11 13 -8 3 21 -13 41 -13 41 -21 32z"/>
<path d="M3951 4414 c-18 -13 -20 -18 -10 -25 8 -5 9 -9 3 -9 -16 0 -10 -43 7
-49 8 -3 14 -17 14 -31 -1 -14 3 -36 7 -49 7 -19 6 -22 -5 -15 -7 5 -5 1 6 -8
10 -10 16 -22 12 -28 -3 -5 -2 -10 3 -10 4 0 7 -16 6 -35 -2 -21 1 -33 6 -30
6 4 10 -1 10 -10 0 -10 5 -14 13 -9 9 5 9 4 0 -6 -8 -8 -9 -20 -3 -36 6 -15 5
-24 -3 -28 -7 -2 -4 -5 6 -5 10 -1 16 -5 13 -10 -3 -5 4 -11 15 -14 13 -4 18
-10 13 -18 -4 -8 -3 -10 5 -5 6 4 9 12 6 17 -4 5 -2 9 4 9 6 0 10 16 9 35 -1
19 -6 35 -11 35 -5 0 -4 6 2 14 9 11 9 15 -1 20 -11 5 -11 7 0 12 10 5 8 10
-8 21 -12 8 -19 21 -16 29 3 8 2 14 -2 14 -4 0 -6 18 -6 40 1 25 -2 39 -10 37
-6 -1 -12 13 -13 33 0 19 -1 43 -2 53 -1 9 -6 17 -12 17 -5 0 -7 -6 -3 -12 4
-7 3 -9 -1 -5 -12 10 -15 38 -4 32 5 -4 6 1 3 9 -3 9 -13 16 -21 16 -8 0 -11
5 -8 10 9 14 3 13 -24 -6z"/>
<path d="M2612 4253 c-1 -13 3 -23 9 -23 5 0 7 -4 4 -10 -3 -5 -1 -10 6 -10
13 0 59 -50 59 -64 0 -5 3 -6 6 -3 10 10 45 -34 37 -46 -3 -5 -1 -7 4 -4 12 8
56 -27 46 -37 -3 -3 1 -6 10 -6 10 0 17 -7 17 -16 0 -10 5 -14 16 -10 8 3 12
2 9 -4 -3 -6 -1 -10 5 -10 6 0 8 -4 5 -10 -3 -5 1 -10 9 -10 9 0 16 -7 16 -17
0 -9 3 -14 6 -10 8 8 33 -16 27 -25 -2 -5 3 -8 12 -8 9 0 13 -4 10 -10 -3 -5
-1 -10 6 -10 13 0 49 -38 49 -52 0 -4 7 -8 15 -8 8 0 15 -7 15 -16 0 -10 6
-14 15 -10 10 3 17 -3 21 -20 4 -14 9 -23 11 -20 6 6 63 -52 63 -64 0 -6 7
-10 15 -10 8 0 15 -7 15 -16 0 -8 4 -13 9 -9 5 3 12 -4 16 -15 4 -11 10 -18
14 -16 9 6 41 -30 34 -38 -4 -3 -2 -6 3 -6 14 0 64 -46 64 -59 0 -6 7 -11 15
-11 9 0 18 -7 21 -15 9 -23 49 -12 47 13 -2 41 -3 44 -18 38 -8 -3 -14 -1 -12
3 3 12 -85 106 -107 114 -9 4 -14 11 -11 17 3 5 -1 10 -10 10 -9 0 -14 4 -10
9 3 5 -4 12 -15 16 -11 4 -18 11 -15 16 6 8 -9 13 -29 10 -5 -1 -6 5 -3 14 4
8 2 15 -3 15 -6 0 -22 13 -36 30 -15 16 -31 27 -36 24 -5 -3 -8 -2 -7 3 4 21
-2 33 -16 33 -8 0 -15 7 -15 16 0 8 -4 13 -9 9 -5 -3 -12 -1 -16 5 -3 5 0 10
7 11 7 0 1 5 -15 11 -15 5 -25 14 -21 19 3 5 0 9 -6 9 -19 0 -53 38 -45 51 5
7 4 10 -2 6 -15 -9 -53 27 -53 49 0 16 -2 17 -10 4 -9 -13 -14 -8 -11 12 0 4
-8 10 -19 13 -11 4 -20 13 -20 21 0 8 -4 13 -9 9 -5 -3 -12 4 -16 15 -3 11
-13 20 -21 20 -8 0 -14 7 -14 16 0 8 -5 12 -10 9 -6 -3 -18 7 -28 24 -9 17
-23 31 -29 31 -7 0 -13 6 -13 13 0 6 -12 12 -28 12 -22 1 -28 -4 -30 -22z"/>
<path d="M1411 4177 c-8 -21 -3 -53 6 -43 3 3 14 -4 26 -14 11 -11 24 -17 28
-14 4 2 14 -4 21 -13 7 -10 19 -18 26 -19 29 -2 33 -5 27 -14 -6 -9 16 -15 39
-11 5 1 6 -4 3 -12 -4 -10 2 -13 19 -11 18 2 24 -3 24 -19 0 -11 3 -17 7 -14
3 4 12 2 20 -4 9 -9 13 -8 13 0 0 6 5 11 12 11 6 0 8 -3 5 -7 -11 -11 14 -32
30 -26 12 5 14 3 8 -7 -6 -10 -4 -12 8 -7 12 4 17 1 18 -11 0 -10 3 -12 6 -4
2 6 9 10 14 6 5 -3 9 2 9 11 0 9 5 13 11 9 7 -4 6 2 -2 17 -18 35 -37 51 -44
39 -4 -6 -11 -5 -19 3 -8 6 -11 16 -8 21 3 5 -4 7 -15 4 -22 -6 -57 24 -45 38
4 4 1 4 -7 -1 -9 -5 -19 -2 -27 9 -7 10 -15 17 -18 17 -25 -3 -36 1 -36 15 0
8 -4 12 -10 9 -5 -3 -10 -1 -10 6 0 10 -3 10 -11 2 -13 -13 -49 13 -49 34 0 7
-4 13 -10 13 -5 0 -7 -8 -3 -17 5 -16 4 -17 -8 -2 -24 28 -49 31 -58 6z"/>
<path d="M7562 4175 c4 -6 -1 -11 -12 -11 -10 0 -16 4 -13 9 3 5 -4 4 -15 -2
-12 -6 -26 -19 -31 -29 -6 -9 -11 -12 -11 -5 0 7 -11 1 -25 -13 -14 -14 -31
-24 -37 -21 -7 2 -23 -7 -36 -20 -13 -13 -37 -26 -53 -30 -16 -3 -26 -9 -23
-14 5 -8 -18 -14 -39 -10 -5 1 -6 -2 -4 -6 6 -10 -19 -34 -27 -26 -3 4 -6 1
-6 -7 0 -9 -3 -10 -13 -1 -11 8 -13 6 -12 -12 1 -12 -3 -25 -9 -29 -7 -5 -6
-8 4 -9 54 -6 82 -4 87 4 4 6 0 7 -8 3 -8 -4 -5 0 6 9 11 9 28 14 38 11 14 -3
17 0 13 11 -5 12 -1 14 15 10 11 -3 18 -3 15 0 -3 4 -1 12 5 20 9 11 15 11 28
1 9 -7 13 -9 9 -4 -12 14 26 46 54 46 16 0 27 3 26 8 -2 4 2 9 7 11 6 2 15 11
21 19 6 9 18 13 27 9 9 -3 16 -3 15 1 -3 14 14 42 23 36 16 -9 10 13 -8 33
-10 10 -15 14 -11 8z"/>
<path d="M4962 4163 c-6 -3 -10 -9 -6 -14 3 -5 0 -9 -6 -9 -6 0 -8 -5 -4 -12
6 -10 5 -10 -8 0 -13 10 -15 9 -13 -13 2 -14 -1 -25 -6 -25 -4 0 -6 -6 -3 -14
3 -8 0 -17 -6 -21 -8 -5 -8 -11 1 -21 10 -12 10 -15 -1 -12 -17 4 -23 -74 -6
-84 17 -11 28 -9 20 3 -5 8 -1 8 13 0 18 -9 20 -7 15 16 -3 16 1 30 10 37 19
15 29 54 14 60 -7 3 -6 5 3 5 11 1 11 4 1 16 -11 13 -10 14 5 9 13 -5 16 -4
11 4 -4 7 -3 12 3 12 13 0 11 59 -2 67 -6 4 -7 1 -2 -8 7 -11 6 -12 -6 -3 -8
6 -20 9 -27 7z"/>
<path d="M6230 4149 c0 -5 5 -7 10 -4 6 3 10 8 10 11 0 2 -4 4 -10 4 -5 0 -10
-5 -10 -11z"/>
<path d="M6179 4113 c-19 -20 -28 -32 -20 -28 9 5 12 4 7 -3 -4 -7 -13 -12
-21 -12 -8 0 -19 -8 -24 -17 -6 -10 -11 -14 -11 -9 0 10 -44 -44 -46 -56 -1
-5 -2 -11 -3 -15 -1 -5 -6 -1 -11 7 -8 13 -10 12 -10 -4 0 -12 -5 -16 -16 -12
-8 3 -13 2 -10 -2 7 -13 -24 -53 -35 -46 -5 3 -8 0 -7 -8 2 -7 -2 -12 -9 -11
-7 2 -10 -3 -7 -11 3 -8 0 -17 -7 -22 -7 -4 -10 -3 -5 4 3 6 1 14 -5 18 -7 4
-9 3 -5 -4 3 -6 2 -13 -4 -17 -6 -4 -7 -11 -4 -17 5 -8 1 -9 -11 -4 -15 5 -16
4 -5 -9 11 -13 10 -14 -2 -10 -17 7 -43 -19 -34 -34 4 -6 -2 -8 -14 -6 -11 2
-19 -1 -17 -8 1 -7 -4 -11 -12 -9 -12 3 -12 0 -2 -12 11 -13 10 -15 -8 -11
-11 2 -20 1 -20 -3 1 -4 1 -14 0 -22 -1 -13 -2 -13 -12 0 -9 12 -10 11 -6 -8
3 -12 1 -19 -4 -16 -14 8 -72 -54 -63 -68 5 -8 0 -7 -11 2 -11 9 -16 10 -11 3
4 -8 1 -13 -8 -13 -10 0 -13 -6 -9 -17 4 -10 2 -14 -4 -10 -19 12 -52 -35 -46
-65 5 -28 22 -39 24 -15 0 6 4 3 9 -8 8 -18 9 -19 9 -1 1 13 6 16 17 12 14 -6
15 -4 4 9 -7 9 -9 15 -4 14 5 -1 18 -1 29 0 15 1 17 3 6 10 -9 6 -10 11 -2 15
6 4 16 4 21 1 6 -4 10 -3 9 2 -4 21 2 43 12 43 5 0 7 -6 3 -12 -5 -9 -2 -8 10
1 9 8 15 20 12 27 -3 8 0 13 7 11 7 -1 11 4 9 12 -3 12 -1 12 14 0 12 -9 15
-9 10 -1 -5 8 -1 12 11 12 14 0 15 2 4 9 -9 6 -10 11 -2 15 6 4 15 5 20 1 6
-3 8 3 6 14 -2 14 1 18 11 14 7 -3 17 2 20 11 3 9 11 13 18 9 6 -4 5 0 -2 9
-11 14 -10 16 11 14 14 -2 24 2 24 10 0 7 -4 11 -9 8 -4 -3 -5 2 -2 10 3 8 12
12 20 9 8 -3 18 5 25 21 7 14 15 23 19 21 4 -3 10 5 13 16 4 14 11 20 21 16
11 -4 13 -1 9 10 -5 12 -2 15 10 10 9 -3 16 -3 16 1 -1 4 -1 16 0 27 1 17 3
18 11 5 8 -12 10 -12 10 -1 0 15 66 81 81 81 6 0 7 5 4 10 -3 6 -1 10 5 10 6
0 8 5 4 11 -4 8 -1 8 13 1 17 -9 19 -8 19 11 -1 15 5 22 16 21 11 -1 14 4 10
14 -4 11 -1 14 10 10 11 -5 14 0 10 19 -4 20 -2 24 8 18 9 -5 11 -4 6 4 -4 7
-15 11 -24 9 -10 -1 -22 1 -28 4 -6 4 -26 -9 -45 -29z m31 13 c0 -2 -8 -10
-17 -17 -16 -13 -17 -12 -4 4 13 16 21 21 21 13z m-100 -100 c0 -2 -8 -10 -17
-17 -16 -13 -17 -12 -4 4 13 16 21 21 21 13z m-450 -450 c0 -2 -8 -10 -17 -17
-16 -13 -17 -12 -4 4 13 16 21 21 21 13z"/>
<path d="M4100 4040 c6 -11 13 -20 16 -20 2 0 0 9 -6 20 -6 11 -13 20 -16 20
-2 0 0 -9 6 -20z"/>
<path d="M5380 3990 c-9 -6 -10 -10 -3 -10 6 0 15 5 18 10 8 12 4 12 -15 0z"/>
<path d="M4385 3860 c3 -5 -16 -9 -42 -8 -27 0 -57 -2 -68 -5 -11 -2 -26 1
-34 7 -12 9 -13 8 -6 -3 6 -11 4 -13 -10 -7 -14 5 -15 4 -7 -6 8 -10 0 -13
-39 -12 -27 1 -52 -3 -55 -8 -4 -6 -10 -5 -15 3 -7 11 -9 11 -9 1 0 -7 -5 -10
-12 -6 -6 4 -8 3 -4 -4 3 -6 2 -13 -3 -16 -5 -4 -13 -2 -16 4 -5 8 -11 8 -20
0 -8 -7 -19 -9 -25 -5 -6 4 -9 1 -8 -7 2 -7 -4 -13 -12 -13 -8 0 -18 -4 -22
-10 -5 -6 -8 -5 -8 3 0 10 -5 10 -20 2 -11 -6 -18 -15 -15 -20 3 -5 -3 -9 -12
-9 -32 1 -54 -7 -64 -22 -5 -8 -9 -10 -9 -5 0 5 -6 3 -13 -3 -8 -6 -17 -8 -20
-4 -4 3 -7 -1 -7 -9 0 -10 -8 -15 -22 -14 -13 0 -22 -4 -21 -11 3 -14 -32 -27
-47 -18 -6 4 -9 1 -8 -7 2 -7 -2 -12 -9 -11 -6 2 -15 -6 -18 -17 -3 -10 -12
-17 -19 -14 -6 2 -32 -13 -55 -35 -24 -22 -48 -38 -53 -35 -5 3 -8 2 -7 -3 3
-17 -1 -33 -8 -32 -18 3 -53 -14 -53 -26 0 -16 -35 -47 -43 -38 -4 3 -8 1 -8
-5 -3 -27 -4 -31 -13 -39 -5 -5 -6 -3 -2 5 4 6 2 12 -3 12 -6 0 -11 -5 -11
-11 0 -5 -5 -7 -12 -3 -7 4 -8 3 -4 -4 9 -15 -18 -55 -29 -44 -4 4 -5 -1 -2
-10 3 -10 3 -17 -1 -15 -4 1 -8 -2 -9 -6 -1 -5 -11 -17 -22 -26 -11 -10 -17
-22 -13 -26 4 -5 -1 -5 -10 -2 -12 4 -18 0 -20 -16 -2 -12 -9 -21 -16 -19 -8
1 -11 -2 -7 -8 8 -13 -19 -52 -30 -42 -4 4 -5 -3 -2 -16 3 -12 1 -20 -4 -16
-5 3 -9 0 -9 -6 0 -6 -5 -8 -12 -4 -7 5 -8 3 -3 -6 4 -7 2 -16 -6 -21 -12 -8
-12 -11 1 -19 12 -8 10 -10 -10 -11 -14 0 -19 -3 -12 -6 10 -4 9 -9 -5 -20
-10 -8 -11 -11 -3 -7 13 7 13 5 1 -9 -7 -9 -18 -14 -25 -10 -6 4 -5 0 2 -9 11
-14 10 -20 -7 -37 -12 -12 -18 -21 -13 -21 4 0 0 -5 -8 -10 -10 -6 -11 -10 -3
-10 10 0 10 -6 1 -25 -6 -13 -14 -23 -17 -20 -4 2 -6 -12 -6 -30 1 -19 -2 -32
-7 -29 -4 3 -8 -2 -8 -10 0 -9 -8 -16 -17 -16 -11 0 -14 -3 -8 -8 12 -8 13
-22 2 -39 -5 -7 -4 -13 1 -13 5 0 9 -7 9 -15 0 -8 -4 -12 -9 -9 -4 3 -8 -2 -8
-10 0 -9 -3 -16 -7 -16 -5 0 -9 -21 -11 -48 -5 -110 -6 -111 -21 -99 -12 10
-12 9 -2 -12 10 -18 10 -25 1 -31 -7 -4 -8 -10 -3 -13 6 -4 7 -26 3 -52 -5
-30 -3 -45 4 -45 7 0 7 -3 1 -8 -16 -11 -15 -61 1 -55 8 3 14 -2 14 -11 0 -19
-8 -18 152 -20 81 -2 125 1 121 7 -4 6 -1 7 7 2 22 -13 122 -16 114 -3 -5 7
-2 8 6 3 22 -13 122 -16 114 -3 -5 7 -2 8 6 3 22 -13 122 -16 114 -3 -5 7 -3
8 7 2 19 -12 1519 -12 1512 0 -4 5 0 6 7 1 22 -13 122 -16 114 -3 -5 7 -2 8 7
3 20 -13 200 -15 192 -2 -4 6 -1 7 7 2 22 -13 122 -16 114 -3 -5 7 -2 8 7 3
20 -13 200 -15 192 -2 -4 6 -1 7 7 2 19 -12 122 -16 115 -5 -4 6 1 7 11 3 13
-5 16 -3 11 10 -4 12 -1 17 11 17 10 0 13 3 7 8 -13 8 -13 22 -1 41 6 10 6 12
-3 7 -15 -9 -11 25 3 36 5 3 2 14 -7 23 -15 15 -15 35 -1 35 3 0 3 -4 -1 -9
-3 -5 -2 -12 3 -15 4 -2 8 6 8 20 0 17 -4 23 -14 19 -12 -4 -13 -3 -2 10 7 9
8 15 2 15 -5 0 -8 9 -5 20 3 11 -1 28 -8 37 -8 10 -9 14 -2 10 8 -5 11 0 10
13 -1 11 -5 20 -10 20 -5 0 -4 6 2 14 9 10 8 15 -3 19 -8 3 -13 16 -12 31 2
14 0 23 -4 21 -5 -3 -8 7 -7 23 0 54 -3 73 -13 67 -6 -4 -10 8 -10 28 0 22 -6
37 -16 41 -8 3 -13 10 -9 15 3 5 1 12 -5 16 -15 9 -12 27 3 20 6 -4 3 2 -8 12
-20 18 -25 32 -28 65 -1 9 -4 15 -8 12 -9 -5 -21 25 -14 36 3 5 -4 14 -15 20
-12 6 -19 17 -17 23 4 12 -6 27 -35 54 -9 9 -15 20 -12 25 3 4 -6 19 -20 33
-28 28 -33 40 -13 30 6 -4 3 1 -7 9 -11 9 -16 16 -10 16 5 0 -4 9 -19 19 -16
10 -28 21 -28 25 3 21 -1 27 -15 22 -8 -3 -12 -2 -9 4 3 6 1 10 -4 10 -6 0
-11 7 -11 16 0 9 -5 12 -12 8 -8 -5 -9 -2 -5 9 7 19 -9 23 -17 5 -3 -7 -4 -4
-3 7 1 14 -4 20 -15 19 -10 -1 -16 2 -13 6 3 5 1 11 -5 15 -6 4 -8 10 -5 15 3
4 -5 10 -16 13 -13 4 -19 11 -16 19 3 9 -3 14 -15 15 -26 2 -70 43 -64 60 3 7
-1 10 -10 6 -7 -3 -14 0 -14 6 0 6 -7 11 -15 11 -14 0 -20 12 -16 33 1 5 -3 6
-9 2 -6 -3 -8 -12 -4 -18 3 -7 -2 -3 -11 8 -9 11 -19 20 -23 20 -4 0 -6 4 -4
9 2 5 -4 6 -13 3 -10 -4 -15 -1 -15 10 0 9 -3 13 -7 10 -3 -4 -15 1 -26 10
-15 13 -18 14 -12 3 8 -13 7 -13 -9 -1 -9 8 -15 20 -12 28 4 9 2 11 -7 6 -17
-11 -38 -13 -32 -3 5 9 -21 22 -45 24 -8 1 -14 6 -13 13 1 6 -8 10 -23 8 -17
-1 -30 5 -40 20 -11 16 -21 21 -40 17 -15 -3 -29 1 -33 7 -4 7 -18 13 -29 14
-12 1 -22 6 -22 12 0 5 -4 4 -8 -3 -6 -9 -13 -7 -30 8 -24 23 -37 26 -26 8 6
-9 3 -9 -9 1 -9 7 -23 11 -31 8 -8 -3 -17 -3 -20 1 -4 3 -21 6 -39 6 -21 1
-31 6 -29 14 1 8 -2 11 -9 6 -6 -3 -15 0 -20 7 -7 11 -9 11 -9 1 0 -16 -80
-13 -80 2 0 8 -3 8 -8 0 -9 -14 -84 -16 -75 -1 3 5 2 7 -4 4 -22 -14 -73 -17
-73 -5 0 9 -3 8 -10 -2 -8 -12 -10 -12 -10 -1 0 10 -3 11 -13 2 -8 -6 -17 -8
-21 -4 -10 10 -37 13 -31 3z m-155 -540 c11 6 21 6 24 1 3 -5 20 -7 38 -6 40
4 52 -3 39 -19 -8 -9 -3 -12 19 -10 21 1 27 -2 23 -12 -3 -9 0 -14 8 -12 8 2
13 -2 12 -9 -2 -7 3 -10 11 -7 11 4 13 0 9 -14 -3 -14 1 -22 17 -27 17 -5 19
-9 9 -21 -10 -12 -10 -15 1 -12 17 4 43 -64 28 -73 -6 -4 -3 -11 7 -16 15 -9
14 -11 -9 -15 -15 -3 -24 -3 -21 0 2 3 -1 12 -8 20 -9 13 -9 14 1 8 6 -4 12
-3 12 1 0 5 -6 15 -12 22 -7 8 -8 11 -2 8 6 -3 11 0 11 8 0 8 -4 12 -9 9 -4
-3 -8 0 -8 6 0 6 -5 8 -10 5 -6 -4 -9 -1 -8 7 2 7 -3 12 -9 11 -7 -2 -12 0
-12 5 4 25 -2 52 -11 47 -6 -4 -10 -3 -9 2 1 4 -1 16 -6 26 -5 12 -11 15 -19
8 -8 -7 -16 -4 -26 9 -15 21 -55 26 -79 11 -9 -6 -10 -11 -2 -15 6 -4 15 -5
20 -2 4 3 17 -4 27 -17 19 -22 19 -22 -1 -7 -17 12 -17 11 1 -6 13 -12 20 -25
16 -30 -4 -4 1 -4 11 -1 12 5 17 1 17 -13 0 -12 7 -20 16 -20 9 0 18 -9 21
-20 3 -11 13 -20 22 -20 14 0 14 -2 1 -10 -13 -9 -13 -10 0 -11 8 -1 18 -1 21
-1 4 1 4 -8 1 -20 -4 -16 -2 -19 9 -13 8 5 11 5 7 0 -9 -10 11 -37 22 -30 5 3
6 -4 3 -15 -3 -12 0 -20 6 -20 7 0 9 5 6 10 -3 6 -2 10 4 10 6 0 8 6 5 14 -3
8 3 16 16 19 17 4 19 3 9 -9 -6 -8 -10 -14 -8 -15 36 -7 40 -6 35 7 -3 8 -1
14 5 14 6 0 5 8 -2 21 -7 14 -7 19 0 15 10 -7 37 32 33 47 -1 5 2 6 8 2 5 -3
10 -2 10 4 0 16 81 92 91 86 5 -4 6 2 2 11 -4 12 -3 15 5 10 7 -4 12 -2 12 4
0 6 4 9 9 5 5 -3 16 0 23 7 20 18 61 41 54 30 -3 -5 1 -9 8 -9 8 0 12 5 10 11
-3 8 9 10 37 8 24 -3 36 -7 29 -12 -7 -5 1 -10 22 -14 18 -3 41 -15 51 -26 9
-11 15 -20 13 -20 -2 0 0 -16 4 -35 5 -24 4 -35 -4 -35 -6 0 -5 -4 3 -9 17
-11 24 -41 9 -41 -6 0 -8 -6 -5 -14 3 -8 1 -16 -5 -18 -8 -3 -7 -10 1 -26 9
-17 9 -22 -1 -22 -9 0 -9 -3 2 -10 10 -7 11 -10 2 -10 -12 0 -30 -35 -38 -75
-2 -11 -8 -21 -13 -23 -6 -2 -8 -9 -5 -17 3 -7 -3 -22 -13 -32 -10 -10 -18
-27 -18 -38 0 -11 -5 -19 -12 -18 -6 1 -14 -4 -17 -13 -3 -8 -2 -12 3 -9 5 3
3 -8 -5 -25 -9 -16 -19 -30 -24 -30 -5 0 -7 -6 -4 -14 3 -8 -4 -19 -16 -26
-12 -7 -19 -18 -16 -25 3 -8 -1 -21 -9 -29 -8 -8 -15 -19 -15 -25 0 -5 -4 -13
-10 -16 -6 -4 -7 1 -3 12 3 10 3 15 -2 11 -4 -4 -9 -20 -10 -35 -1 -19 -7 -28
-18 -27 -9 1 -15 -2 -12 -6 3 -4 0 -22 -6 -40 -9 -23 -14 -28 -20 -18 -7 10
-9 8 -9 -6 0 -10 -8 -25 -17 -33 -10 -8 -11 -11 -4 -7 9 4 5 -6 -8 -25 -13
-18 -30 -35 -37 -38 -8 -3 -12 -9 -9 -13 3 -4 -2 -11 -10 -14 -10 -4 -20 3
-27 19 -6 14 -17 25 -25 25 -7 0 -13 9 -13 20 0 14 -7 20 -21 20 -11 0 -17 5
-14 10 3 6 -1 10 -9 10 -14 0 -20 12 -17 32 0 5 -2 7 -7 7 -20 -3 -32 3 -32
17 0 8 -4 13 -9 9 -5 -3 -12 -1 -16 5 -3 5 -1 10 6 10 7 0 4 7 -7 16 -10 8
-13 12 -5 8 9 -5 12 -3 7 4 -4 7 -14 12 -22 12 -8 0 -14 5 -14 11 0 5 -4 7
-10 4 -5 -3 -7 0 -4 8 4 10 -1 15 -13 14 -10 -1 -17 4 -15 11 1 6 -1 11 -5 11
-20 -3 -34 2 -28 11 3 6 -1 10 -9 10 -8 0 -21 9 -29 20 -8 12 -19 20 -23 18
-5 -2 -27 16 -49 40 -28 32 -35 46 -26 51 10 6 9 10 -4 15 -9 3 -21 3 -26 0
-5 -3 -9 -2 -8 3 3 20 -2 34 -11 28 -6 -3 -7 1 -4 9 4 10 1 16 -7 16 -11 0
-11 3 1 10 13 8 13 10 -2 10 -18 0 -33 33 -23 50 3 5 0 10 -7 10 -9 0 -9 3 2
10 9 6 11 10 3 10 -7 0 -10 7 -6 17 4 11 3 14 -5 9 -13 -8 -14 -3 -14 63 -1
24 5 47 12 51 7 4 10 15 7 24 -4 9 -2 16 2 16 5 0 7 10 3 22 -4 17 -2 20 11
15 9 -3 19 -1 23 5 4 7 3 8 -4 4 -7 -4 -12 -3 -12 3 0 5 5 13 10 16 6 4 7 11
4 17 -5 8 -1 9 10 5 9 -4 15 -3 12 2 -3 5 2 17 12 28 9 10 14 14 10 9 -4 -5
-2 -16 5 -24 9 -12 9 -16 -1 -19 -6 -3 -10 -9 -6 -14 3 -5 -1 -9 -8 -9 -9 0
-13 -10 -12 -27 1 -16 -3 -36 -8 -47 -7 -12 -7 -16 0 -12 6 4 9 -10 7 -35 -2
-28 1 -39 10 -36 6 3 12 0 13 -6 4 -39 9 -54 23 -67 9 -8 15 -25 14 -37 -1
-14 3 -19 12 -16 12 5 18 -20 13 -57 -1 -10 3 -9 14 5 12 17 14 17 12 3 -1
-10 -5 -21 -9 -24 -4 -4 -7 -12 -7 -18 0 -6 4 -5 9 3 7 11 13 10 32 -8 15 -13
18 -21 9 -21 -10 0 -8 -6 6 -20 33 -33 43 -48 37 -54 -4 -3 -1 -6 6 -6 8 0 11
-8 8 -20 -3 -11 -1 -18 4 -14 16 9 33 -7 18 -18 -10 -7 -9 -9 7 -5 17 4 20 0
18 -19 -1 -13 3 -27 8 -31 6 -3 8 -1 4 5 -3 6 -2 14 4 17 6 4 9 3 8 -2 -4 -15
13 -53 22 -48 5 3 11 1 15 -5 4 -6 11 -7 17 -4 6 4 8 2 5 -3 -4 -6 1 -17 10
-24 14 -12 16 -12 8 0 -5 10 -4 12 3 7 7 -4 12 -14 12 -22 0 -8 10 -14 25 -14
14 0 25 -4 25 -10 0 -5 7 -10 15 -10 8 0 15 -5 15 -11 0 -6 9 -8 22 -4 16 6
20 4 15 -7 -3 -8 0 -15 7 -15 7 0 13 5 14 11 4 44 7 53 19 49 7 -3 15 6 19 21
3 14 10 24 14 21 5 -3 10 5 12 17 2 13 9 22 16 20 8 -1 11 2 7 8 -4 6 -1 17 5
25 10 12 10 15 -1 16 -8 0 -4 4 9 9 12 5 22 16 22 24 0 7 7 17 16 20 8 3 12
11 8 17 -4 7 4 20 17 31 13 11 18 17 12 13 -9 -4 -11 -1 -7 9 3 9 10 16 16 16
5 0 7 4 4 9 -3 5 1 11 9 15 8 3 15 12 15 20 0 8 12 27 28 42 15 15 18 21 7 13
-19 -13 -19 -13 -2 7 9 11 14 24 10 27 -3 4 2 14 13 22 19 15 19 15 -1 8 -17
-6 -18 -5 -5 9 8 9 17 15 20 13 3 -2 5 35 5 81 0 60 -3 83 -12 80 -6 -3 -14 6
-17 20 -4 14 -14 24 -24 24 -15 0 -15 2 -2 11 12 8 9 10 -12 6 -22 -3 -26 -1
-22 16 3 16 1 18 -8 9 -9 -9 -15 -9 -27 1 -10 8 -12 8 -8 1 10 -17 -23 -26
-41 -12 -12 10 -14 10 -8 1 7 -13 -4 -17 -31 -14 -7 1 -13 -5 -13 -14 0 -8 -5
-14 -12 -13 -7 2 -12 -3 -13 -11 0 -8 -9 -17 -20 -22 -11 -4 -14 -8 -7 -8 7
-1 10 -6 7 -11 -4 -6 -11 -8 -16 -4 -5 3 -9 2 -8 -3 4 -21 -2 -33 -17 -33 -14
0 -15 -2 -3 -17 8 -9 9 -14 4 -11 -6 4 -17 3 -25 -3 -9 -5 -10 -9 -3 -9 8 0 7
-9 -3 -30 -9 -16 -19 -30 -23 -30 -4 0 -6 -18 -5 -40 1 -22 -3 -40 -7 -40 -5
0 -9 -5 -9 -11 0 -5 4 -7 10 -4 16 10 -2 -28 -19 -42 -9 -7 -22 -10 -29 -8 -7
3 -10 0 -7 -5 3 -6 2 -10 -4 -10 -5 0 -11 6 -14 13 -5 15 3 38 12 33 4 -3 8 4
8 15 1 13 -2 17 -10 12 -8 -5 -8 -2 1 9 10 13 10 17 -3 22 -9 3 -13 10 -10 16
3 6 -1 17 -10 26 -9 9 -14 23 -11 30 3 8 1 14 -4 14 -5 0 -7 7 -3 15 3 9 2 15
-3 14 -20 -3 -34 2 -34 12 0 5 6 7 13 4 6 -4 -1 6 -18 20 -16 15 -24 24 -18
21 9 -5 11 -2 7 9 -4 9 -9 14 -11 11 -6 -6 -53 44 -53 56 0 5 -5 6 -11 3 -6
-4 -13 2 -16 14 -3 11 -9 19 -13 16 -4 -3 -11 2 -14 11 -3 9 -11 12 -18 8 -7
-5 -9 -2 -6 8 4 8 0 15 -8 15 -7 0 -11 -5 -8 -11 3 -6 -2 -2 -10 8 -12 15 -16
16 -17 5 0 -11 -2 -11 -6 0 -5 11 -7 11 -14 0 -5 -9 -11 -11 -18 -4 -7 7 -2
20 15 40 21 24 27 27 34 15 8 -12 10 -11 11 5 0 11 3 14 6 8 3 -9 10 -10 23
-3z"/>
<path d="M4822 3285 c4 -4 0 -14 -10 -22 -16 -12 -16 -13 1 -7 15 6 22 -4 19
-27 -1 -4 8 -5 19 -2 11 3 19 2 18 -3 -4 -21 2 -34 14 -31 6 1 11 -6 11 -15
-1 -10 2 -15 7 -12 5 3 9 0 9 -7 0 -22 11 -2 14 25 2 14 -1 26 -7 26 -5 0 -3
8 4 17 10 11 10 14 2 9 -8 -4 -13 -2 -13 6 0 9 -3 9 -10 -2 -8 -12 -10 -11
-10 6 0 12 -7 25 -16 28 -8 3 -12 2 -9 -4 3 -6 -3 -10 -15 -10 -12 0 -19 4
-15 9 3 5 0 13 -7 17 -7 4 -10 4 -6 -1z"/>
<path d="M4940 3139 c0 -5 5 -7 10 -4 6 3 10 8 10 11 0 2 -4 4 -10 4 -5 0 -10
-5 -10 -11z"/>
<path d="M4084 3015 c-4 -8 -11 -12 -18 -9 -6 3 -2 -2 8 -10 11 -9 16 -16 10
-16 -5 0 -10 -11 -10 -26 -2 -23 -1 -24 11 -7 7 10 17 15 21 10 4 -4 2 -7 -4
-7 -7 0 -12 -5 -12 -11 0 -5 4 -8 8 -5 4 2 7 -11 7 -30 -1 -19 2 -34 7 -34 5
0 6 -6 2 -12 -5 -8 0 -7 11 2 16 13 18 13 13 0 -3 -8 4 -23 14 -32 11 -9 17
-22 13 -27 -3 -6 -1 -11 6 -11 17 0 50 -41 42 -54 -3 -6 -2 -8 2 -3 12 11 14
47 2 47 -5 0 -3 8 4 17 10 11 10 14 2 9 -8 -4 -13 -2 -13 4 0 6 -5 8 -10 5 -6
-4 -10 -3 -9 2 4 21 -3 35 -33 70 -18 20 -27 34 -20 29 18 -11 14 5 -5 20 -17
13 -17 14 2 8 12 -3 9 1 -8 11 -23 13 -26 19 -17 36 8 15 8 19 -2 17 -7 -2
-12 3 -10 10 3 17 -7 15 -14 -3z"/>
<path d="M4155 2900 c3 -5 8 -10 11 -10 2 0 4 5 4 10 0 6 -5 10 -11 10 -5 0
-7 -4 -4 -10z"/>
<path d="M4154 2771 c20 -22 26 -25 26 -13 0 4 -10 13 -22 21 -23 14 -23 14
-4 -8z"/>
<path d="M2060 3815 c0 -8 -4 -14 -9 -12 -19 5 -10 -15 19 -43 16 -15 30 -25
30 -22 0 3 10 -5 21 -17 15 -16 24 -19 29 -11 5 8 9 7 14 -5 3 -9 11 -13 17
-9 7 4 9 3 5 -4 -3 -6 -2 -13 4 -17 5 -3 10 -1 10 6 0 7 8 2 19 -9 10 -12 26
-22 36 -22 10 0 15 -5 12 -13 -4 -10 2 -13 18 -9 12 2 26 -2 30 -9 6 -8 4 -10
-5 -4 -9 6 -11 4 -6 -4 5 -7 14 -10 22 -7 8 3 14 2 14 -3 0 -5 10 -12 23 -16
50 -16 54 -15 52 8 -1 12 -3 28 -4 36 0 7 -7 11 -16 7 -8 -3 -15 -2 -15 2 0 5
-7 17 -16 28 -8 10 -13 13 -9 7 4 -9 1 -11 -9 -7 -9 3 -16 14 -16 23 0 14 -2
14 -10 1 -9 -13 -14 -7 -11 12 0 4 -6 5 -14 2 -8 -4 -23 2 -33 13 -9 10 -15
14 -12 8 3 -6 -2 -4 -10 5 -8 8 -22 15 -30 15 -8 0 -14 5 -13 12 1 6 -11 14
-27 18 -17 4 -28 11 -25 16 4 5 -1 6 -9 3 -9 -3 -17 2 -21 15 -3 12 -11 21
-17 21 -6 0 -5 -7 3 -17 13 -17 13 -17 -7 0 -25 21 -34 22 -34 2z"/>
<path d="M6906 3803 c-10 -10 -15 -12 -11 -4 5 9 -1 7 -19 -4 -14 -10 -26 -21
-26 -26 0 -4 -10 -6 -21 -4 -12 3 -19 2 -15 -2 9 -9 -32 -35 -44 -28 -6 4 -9
1 -8 -6 2 -7 -2 -13 -9 -14 -7 0 -21 -7 -31 -16 -10 -9 -26 -15 -35 -13 -10 1
-15 -1 -12 -6 3 -4 -9 -13 -25 -19 -17 -5 -30 -13 -30 -16 0 -3 6 -3 13 1 9 5
9 4 1 -5 -6 -7 -21 -13 -32 -14 -23 -1 -40 -29 -23 -35 6 -2 9 -7 6 -12 -3 -4
4 -10 15 -13 11 -3 20 0 20 5 0 6 8 4 17 -3 14 -12 16 -12 8 0 -6 11 -4 13 7
8 10 -3 15 0 14 11 0 9 6 17 14 17 8 0 20 6 26 14 6 8 16 11 22 7 8 -4 12 0
12 11 0 14 2 15 9 4 7 -11 10 -9 16 8 5 18 9 20 21 10 12 -10 15 -10 12 2 -2
8 4 13 15 13 9 -1 17 5 17 13 0 12 3 13 15 3 12 -10 14 -8 10 8 -3 15 2 19 21
16 13 -1 22 3 21 9 -1 6 4 12 11 13 6 1 15 3 20 4 4 1 10 2 15 1 12 -2 8 44
-6 62 -11 17 -13 17 -31 0z"/>
<path d="M2680 3442 c0 -7 -4 -10 -10 -7 -18 11 -10 -2 18 -31 15 -16 34 -30
42 -32 8 -2 20 -8 25 -14 7 -8 6 -8 -4 -3 -10 6 -12 4 -7 -4 5 -7 11 -10 14
-7 3 3 12 0 20 -7 13 -9 14 -9 8 0 -5 9 -2 11 8 7 9 -3 13 -11 9 -17 -4 -6 0
-8 11 -4 10 4 15 3 11 -3 -3 -6 3 -10 15 -10 11 0 23 -6 26 -14 3 -8 12 -17
20 -20 10 -4 13 -1 9 7 -4 6 0 4 8 -5 8 -10 17 -15 20 -11 4 3 7 1 7 -5 0 -7
6 -12 14 -12 8 0 21 -8 28 -18 19 -27 73 -35 90 -15 9 12 9 15 1 9 -7 -4 -13
-2 -13 3 0 6 5 11 11 11 5 0 7 5 4 10 -4 6 -10 8 -15 5 -5 -3 -12 4 -15 16 -5
14 -13 19 -26 16 -11 -3 -19 0 -19 8 0 19 -27 38 -35 25 -5 -8 -11 -8 -21 1
-7 6 -11 16 -7 22 3 5 2 7 -4 4 -5 -3 -24 3 -42 14 -18 11 -38 16 -44 12 -7
-4 -5 2 3 12 9 11 10 16 3 11 -7 -4 -13 -3 -13 1 0 5 -10 9 -22 10 -11 1 -25
8 -29 15 -5 7 -9 9 -9 4 0 -6 -7 -1 -16 10 -8 10 -13 13 -9 7 3 -7 1 -13 -4
-13 -6 0 -11 6 -11 14 0 9 -10 13 -25 12 -14 0 -25 -7 -25 -14z"/>
<path d="M6270 3440 c0 -5 -9 -10 -19 -10 -11 0 -23 -5 -27 -12 -5 -7 -3 -8 6
-3 9 5 11 4 6 -4 -6 -9 -11 -9 -21 -1 -14 12 -40 -11 -27 -25 4 -5 2 -5 -5 -1
-6 3 -15 1 -19 -5 -4 -8 -9 -7 -15 2 -7 12 -9 11 -9 -1 0 -8 -12 -24 -27 -34
-14 -11 -23 -15 -20 -9 3 5 0 10 -7 10 -8 0 -12 -7 -8 -15 3 -10 1 -13 -6 -8
-7 4 -12 3 -12 -3 0 -5 -9 -8 -20 -6 -11 2 -19 1 -19 -3 3 -20 -3 -30 -18 -28
-10 0 -17 -5 -15 -12 1 -7 -5 -12 -15 -10 -11 2 -17 -2 -15 -11 2 -11 0 -12
-10 -3 -21 17 -17 -19 4 -40 10 -10 18 -13 18 -7 0 6 6 9 12 7 7 -3 19 1 26 9
8 7 17 11 22 8 4 -3 11 2 14 11 4 9 13 14 21 10 10 -3 15 1 15 12 0 15 2 15
10 2 8 -13 10 -13 10 2 0 12 5 15 17 11 12 -5 15 -2 10 10 -4 11 -2 14 9 10 8
-3 23 5 35 18 15 17 19 19 15 7 -4 -15 -2 -16 14 -6 10 7 17 14 15 18 -1 3 3
11 11 18 11 10 14 10 14 0 0 -6 7 -3 16 8 8 10 13 12 9 4 -4 -9 0 -7 9 4 8 10
20 15 26 11 6 -3 10 -3 9 2 -4 22 2 43 11 38 15 -9 12 4 -4 21 -17 16 -46 19
-46 4z"/>
<path d="M1010 3348 c0 -6 -7 -8 -15 -5 -8 4 -17 2 -20 -3 -4 -6 -1 -10 5 -10
7 0 10 -6 7 -14 -3 -8 1 -20 9 -26 11 -10 14 -10 14 -1 0 7 5 9 13 4 6 -4 22
-7 34 -8 12 0 25 -4 30 -9 4 -5 3 -7 -3 -3 -6 3 -11 0 -11 -8 0 -10 4 -12 12
-5 8 7 21 7 38 1 16 -7 28 -6 36 2 8 8 11 8 11 -1 0 -7 7 -12 16 -12 8 0 13
-4 9 -9 -3 -6 7 -9 22 -7 29 2 92 -21 105 -39 5 -6 8 -6 8 1 0 7 13 11 29 10
16 0 28 -3 25 -7 -7 -11 41 -26 83 -24 30 1 39 -2 33 -10 -7 -8 5 -12 38 -14
26 -1 49 -6 50 -12 2 -5 8 -7 13 -3 5 3 9 1 9 -4 0 -6 14 -9 30 -8 17 1 30 -1
30 -6 0 -4 5 -8 11 -8 5 0 7 5 4 11 -8 12 32 -9 53 -29 7 -7 19 -9 25 -5 19
12 36 12 44 1 4 -7 1 -8 -8 -3 -11 6 -12 5 -2 -5 19 -20 119 -18 138 3 8 9 12
15 9 12 -4 -3 -14 3 -23 13 -9 11 -28 18 -44 17 -16 -1 -32 5 -37 14 -5 9 -10
12 -10 8 0 -4 -9 -3 -20 3 -15 8 -20 8 -20 -2 0 -6 -7 -3 -16 8 -8 10 -12 13
-8 5 4 -9 2 -12 -7 -9 -8 3 -13 11 -11 18 2 8 -5 9 -19 5 -15 -5 -19 -4 -14 5
6 9 3 9 -13 1 -14 -7 -23 -8 -27 -1 -3 5 -11 10 -16 10 -6 0 -7 -6 -3 -12 5
-7 -3 -5 -16 4 -14 9 -24 21 -22 28 2 8 -3 8 -17 0 -11 -5 -22 -6 -25 -1 -3 4
-18 6 -32 3 -21 -4 -25 -2 -19 9 8 12 6 12 -8 0 -15 -12 -17 -12 -11 3 5 12 2
15 -10 10 -10 -4 -16 -1 -16 7 0 10 -3 10 -8 3 -8 -13 -42 -14 -42 -2 0 5 -6
6 -12 2 -10 -6 -10 -4 0 8 11 14 11 16 0 14 -7 -1 -19 -6 -27 -10 -10 -6 -12
-5 -7 2 10 16 -16 15 -33 0 -11 -10 -13 -10 -7 0 4 7 1 12 -8 12 -9 0 -16 6
-16 13 0 8 -4 7 -10 -3 -6 -10 -10 -11 -10 -2 0 6 -9 12 -21 12 -11 0 -30 5
-41 11 -15 8 -19 8 -14 0 4 -6 2 -11 -3 -11 -6 0 -11 6 -11 14 0 10 -7 12 -22
8 -15 -4 -19 -2 -13 7 6 10 3 11 -13 2 -15 -8 -23 -8 -27 0 -4 6 -14 8 -22 4
-12 -4 -13 -2 -5 8 9 11 7 13 -11 12 -12 -1 -37 2 -54 6 -20 4 -33 3 -33 -3z"/>
<path d="M7945 3342 c2 -14 -1 -19 -10 -16 -7 3 -16 0 -20 -6 -5 -8 -10 -8
-20 0 -9 8 -15 8 -20 0 -3 -5 -11 -10 -16 -10 -6 0 -7 5 -3 11 4 8 0 8 -15 0
-11 -7 -21 -16 -21 -20 0 -5 -13 -8 -30 -7 -16 1 -32 -3 -34 -8 -2 -6 -5 -5
-5 3 -1 11 -4 10 -15 -4 -8 -11 -26 -18 -50 -19 -20 -1 -36 -5 -36 -10 0 -5
-8 -2 -17 5 -11 10 -14 10 -9 2 4 -8 2 -13 -4 -13 -6 0 -9 -4 -6 -9 7 -11 -13
-9 -31 2 -7 5 -13 4 -13 -2 0 -5 -11 -8 -25 -6 -20 2 -23 0 -14 -11 11 -14 0
-16 -98 -17 -12 0 -20 -4 -17 -8 3 -5 0 -9 -6 -9 -6 0 -8 -6 -4 -12 5 -10 4
-10 -6 -1 -8 8 -20 9 -36 3 -15 -6 -24 -5 -28 3 -3 9 -5 9 -5 0 -1 -7 -12 -13
-26 -13 -14 0 -25 -5 -25 -11 0 -6 -7 -9 -15 -5 -8 3 -15 1 -15 -5 0 -6 -5 -7
-10 -4 -6 4 -18 1 -27 -7 -14 -11 -16 -11 -9 2 6 11 4 11 -6 -1 -7 -9 -24 -15
-38 -14 -14 1 -31 -2 -37 -8 -9 -6 -13 -5 -14 4 0 8 -4 4 -9 -8 -5 -13 -15
-23 -22 -23 -9 0 -9 3 2 10 8 5 10 10 5 10 -6 0 -16 -5 -23 -12 -7 -7 -12 -8
-12 -4 0 5 -8 2 -17 -5 -9 -8 -14 -9 -10 -3 3 6 0 11 -8 11 -8 0 -13 -3 -10
-5 3 -3 0 -11 -5 -17 -6 -7 -8 -19 -4 -28 6 -16 34 -32 34 -19 0 5 19 8 41 7
30 -1 48 5 62 19 11 12 16 14 12 6 -7 -13 -6 -13 7 -2 8 7 23 9 33 6 10 -4 21
-1 26 7 7 12 9 12 9 -1 0 -10 5 -8 15 7 10 14 22 19 35 16 11 -3 28 1 37 8 12
10 14 10 9 2 -4 -7 -3 -13 2 -13 6 0 12 6 15 14 6 16 47 29 47 14 0 -5 6 -6
13 -1 6 4 18 8 26 10 8 1 18 8 22 15 7 10 9 10 9 -2 1 -12 3 -11 14 3 10 12
16 15 21 7 5 -8 14 -6 32 6 14 9 45 17 68 19 25 1 51 9 61 19 13 14 19 15 25
4 5 -7 9 -8 9 -2 0 6 12 10 28 9 15 -1 29 1 32 5 3 4 20 14 38 23 31 15 33 15
28 0 -5 -12 -3 -13 6 -6 7 6 21 9 31 8 14 -3 15 0 8 9 -8 10 -5 12 12 11 12
-1 30 2 41 7 13 7 21 6 26 -2 6 -9 9 -9 15 0 4 6 14 9 22 5 13 -4 14 -3 4 9
-10 12 -8 14 13 12 15 -2 26 1 26 7 0 5 7 4 15 -3 12 -10 15 -10 15 4 0 9 8
16 18 16 14 0 15 2 2 10 -13 8 -12 10 5 10 30 0 4 20 -31 24 -16 1 -39 -1 -50
-5 -13 -4 -26 -3 -32 3 -9 9 -10 6 -7 -10z"/>
<path d="M2838 3293 c7 -3 16 -2 19 1 4 3 -2 6 -13 5 -11 0 -14 -3 -6 -6z"/>
<path d="M2200 3042 c0 -7 -4 -10 -10 -7 -6 4 -7 -1 -3 -11 4 -11 2 -15 -4
-11 -6 4 -13 0 -17 -8 -3 -9 0 -15 9 -15 8 0 15 -5 15 -11 0 -6 7 -8 15 -5 10
4 19 -2 25 -17 5 -12 9 -17 9 -11 1 14 61 5 78 -11 6 -7 23 -11 37 -10 15 2
26 -2 26 -8 0 -8 3 -8 8 -2 10 15 35 18 26 4 -5 -9 -2 -10 9 -6 9 3 16 3 16
-1 -3 -19 2 -23 16 -12 9 8 15 9 15 2 0 -6 9 -9 19 -7 11 2 22 -3 25 -11 3 -9
10 -13 15 -10 5 4 12 0 15 -6 3 -7 3 -2 0 12 l-6 25 17 -24 c14 -18 19 -20 26
-10 7 12 9 12 9 0 0 -8 7 -11 20 -8 13 3 20 0 20 -9 0 -8 5 -14 11 -14 5 0 7
6 3 13 -5 7 0 6 10 -3 21 -16 48 -20 57 -6 4 4 17 -2 29 -14 12 -12 28 -19 36
-16 8 3 14 1 14 -4 0 -6 9 -6 25 0 23 9 29 6 26 -12 0 -5 5 -8 11 -9 7 0 32
-2 55 -4 36 -3 42 0 45 19 3 12 -1 28 -9 34 -10 10 -13 10 -13 0 0 -8 -3 -9
-8 -3 -4 6 -17 10 -29 9 -14 -1 -23 4 -23 14 0 9 -7 13 -20 9 -11 -3 -23 -1
-26 5 -4 7 -9 6 -14 -2 -5 -8 -11 -7 -22 4 -9 8 -27 17 -42 20 -14 2 -31 8
-37 12 -8 4 -9 3 -5 -4 5 -8 -2 -8 -24 -1 -16 6 -28 14 -25 19 2 4 -16 7 -41
7 -29 0 -49 5 -55 14 -5 8 -9 10 -9 5 0 -5 -6 -4 -12 1 -7 5 -28 9 -45 8 -30
-1 -38 6 -34 28 1 4 -8 3 -19 -3 -11 -6 -20 -7 -20 -3 0 4 -16 8 -36 9 -20 0
-39 5 -42 11 -10 14 -52 23 -52 11 0 -6 -6 -6 -15 2 -8 6 -19 9 -24 6 -5 -4
-14 2 -20 11 -6 10 -11 14 -11 8 0 -5 -5 -3 -10 5 -7 11 -10 11 -10 2z"/>
<path d="M6589 2978 c-1 -7 -1 -17 0 -21 1 -5 -4 -5 -11 -1 -19 12 -39 14 -32
3 3 -6 -5 -8 -19 -5 -16 3 -29 -2 -38 -15 -10 -14 -15 -15 -21 -6 -6 9 -8 9
-8 -2 0 -11 -3 -11 -15 -1 -12 10 -15 10 -15 0 0 -8 -3 -10 -6 -7 -4 3 -16 2
-27 -4 -10 -6 -17 -7 -14 -2 4 5 0 10 -8 10 -8 0 -12 -3 -10 -7 2 -3 -5 -11
-16 -18 -15 -10 -19 -10 -19 0 0 10 -2 10 -9 0 -11 -19 -15 -19 -34 -4 -13 11
-18 10 -30 -9 -9 -11 -20 -18 -26 -14 -6 3 -11 0 -11 -7 0 -9 -3 -9 -10 2 -6
10 -10 11 -10 3 0 -7 -5 -13 -11 -13 -5 0 -7 6 -3 13 4 6 -5 1 -19 -12 -15
-14 -27 -20 -27 -15 0 5 -5 2 -10 -6 -5 -8 -10 -10 -10 -5 0 6 -9 11 -19 11
-11 0 -17 -4 -15 -8 4 -7 -15 -12 -36 -10 -14 1 -2 -51 13 -60 9 -5 17 -6 17
-2 0 3 8 0 18 -7 15 -13 16 -12 4 2 -10 14 -10 18 2 22 7 3 19 0 26 -6 10 -9
11 -9 6 0 -5 9 4 11 29 9 31 -3 34 -2 23 12 -12 13 -10 14 10 3 16 -9 22 -9
22 0 0 6 7 9 15 5 8 -3 15 -1 15 4 0 6 10 8 23 6 12 -2 31 3 43 10 11 8 24 11
27 7 4 -3 7 -1 7 7 0 10 3 10 15 0 12 -10 15 -10 15 0 0 7 7 10 16 6 8 -3 12
-2 9 4 -6 10 3 13 38 13 9 0 17 4 17 10 0 5 6 4 14 -2 17 -14 31 2 20 22 -5 8
-2 8 9 -2 9 -7 17 -10 17 -5 0 5 19 10 42 10 23 1 44 7 46 13 2 6 10 11 17 11
7 0 12 8 10 18 -1 9 -8 16 -14 15 -6 -2 -11 3 -11 11 0 19 -20 32 -21 14z
m-309 -88 c0 -5 -5 -10 -11 -10 -5 0 -7 5 -4 10 3 6 8 10 11 10 2 0 4 -4 4
-10z m22 -62 c-7 -7 -12 -8 -12 -2 0 14 12 26 19 19 2 -3 -1 -11 -7 -17z"/>
<path d="M588 2424 c-4 -4 -18 -7 -30 -8 -16 -1 -23 -7 -23 -21 0 -28 17 -45
35 -35 9 5 23 4 33 -1 11 -7 17 -7 17 0 0 7 8 7 26 1 18 -7 23 -7 18 1 -4 8 0
8 15 0 11 -7 21 -8 21 -4 0 4 14 8 30 8 17 0 30 -4 30 -9 0 -5 6 -3 14 3 11 9
15 9 19 -1 4 -10 6 -10 6 1 1 11 4 11 16 1 11 -9 15 -9 15 -1 0 7 5 9 12 5 19
-12 48 -12 48 -1 0 5 6 4 14 -2 10 -9 16 -9 21 -1 5 7 11 8 19 1 7 -6 17 -6
26 -1 8 5 21 5 32 -1 12 -6 18 -6 18 0 0 6 11 6 28 1 16 -4 36 -4 45 2 11 6
17 5 17 -2 0 -5 5 -10 11 -10 5 0 8 4 5 8 -2 4 4 8 14 8 10 0 17 -3 15 -7 -5
-8 40 -3 54 6 6 3 11 1 11 -5 0 -8 6 -7 21 1 15 8 19 8 15 0 -5 -8 0 -8 18 -1
18 7 26 6 26 -1 0 -8 4 -8 14 0 11 9 15 9 19 -1 4 -10 6 -10 6 1 1 11 4 11 16
1 12 -10 15 -10 15 0 0 9 3 10 13 1 10 -8 17 -7 25 1 9 9 12 9 12 0 0 -8 7 -9
25 -2 14 5 25 6 25 1 0 -4 7 -8 15 -8 8 0 15 4 15 8 0 4 12 4 28 1 34 -9 54
-9 70 1 7 5 12 3 12 -4 0 -8 4 -9 13 0 10 8 17 7 25 -1 9 -9 12 -9 12 3 0 12
2 12 10 -1 8 -12 11 -13 19 -1 6 9 10 10 16 2 5 -9 10 -9 21 0 11 9 14 9 14 0
0 -9 5 -9 20 -1 15 8 20 8 20 -1 0 -8 4 -8 15 1 12 10 15 10 15 -1 0 -10 2
-11 8 -2 5 8 13 9 22 3 8 -5 21 -5 32 1 13 7 18 6 18 -3 0 -9 3 -9 10 2 7 11
10 11 10 2 0 -10 5 -10 20 -2 15 8 20 8 20 -1 0 -8 4 -8 13 -1 6 5 21 6 32 2
11 -4 27 -4 36 1 8 4 21 4 29 -1 7 -4 24 -4 37 1 18 7 22 6 17 -4 -6 -9 -5 -9
7 0 9 7 20 9 29 3 9 -5 19 -5 27 2 9 7 13 7 13 -2 0 -10 3 -10 15 0 8 6 19 9
24 5 7 -4 8 1 4 11 -5 13 -3 15 7 9 9 -5 11 -4 6 4 -4 6 -12 8 -18 5 -7 -5 -9
0 -6 12 4 15 0 19 -18 19 -13 -1 -27 -4 -30 -8 -3 -3 -16 -2 -29 3 -14 5 -26
5 -34 -3 -8 -8 -11 -8 -11 1 0 8 -7 9 -25 2 -14 -5 -25 -6 -25 -1 0 11 -19 9
-37 -2 -8 -5 -13 -3 -13 3 0 7 -7 7 -22 -1 -15 -8 -23 -9 -26 -1 -2 7 -13 7
-33 2 -18 -5 -29 -5 -29 1 0 6 -8 5 -20 -1 -14 -8 -20 -8 -20 0 0 8 -6 8 -20
0 -14 -8 -20 -8 -20 0 0 7 -6 8 -19 0 -14 -7 -21 -6 -25 3 -4 8 -8 9 -11 1 -4
-8 -17 -9 -39 -4 -18 4 -41 3 -50 -2 -10 -6 -16 -5 -16 1 0 10 -18 10 -35 -1
-6 -4 -17 -3 -25 2 -7 4 -24 4 -37 -1 -13 -5 -23 -5 -23 0 0 11 -19 9 -37 -2
-8 -5 -13 -3 -13 3 0 6 -5 8 -11 5 -17 -11 -59 -13 -59 -3 0 5 -9 4 -20 -2
-14 -8 -20 -8 -20 0 0 8 -6 8 -20 0 -14 -8 -20 -8 -20 0 0 7 -6 8 -19 0 -14
-7 -21 -6 -25 3 -4 8 -8 9 -11 1 -4 -8 -17 -9 -39 -4 -18 4 -41 3 -50 -2 -10
-6 -16 -5 -16 1 0 10 -18 10 -35 -1 -6 -4 -17 -3 -25 2 -7 4 -24 4 -37 -1 -13
-5 -23 -5 -23 0 0 11 -19 9 -37 -2 -8 -5 -13 -3 -13 3 0 7 -6 8 -19 0 -14 -7
-21 -6 -24 3 -4 8 -6 9 -6 0 -1 -8 -10 -9 -29 -4 -15 5 -37 4 -50 0 -12 -5
-22 -4 -22 0 0 10 -19 9 -35 -1 -6 -4 -17 -3 -25 2 -7 4 -24 4 -37 -1 -13 -5
-23 -5 -23 0 0 11 -19 9 -37 -2 -8 -5 -13 -3 -13 3 0 7 -6 8 -19 0 -14 -7 -22
-7 -26 0 -5 8 -11 8 -20 0 -9 -8 -14 -8 -17 0 -2 6 -7 8 -10 4z"/>
<path d="M2422 2418 c-6 -6 -12 -9 -12 -5 0 4 -6 2 -13 -5 -8 -7 -12 -20 -10
-30 6 -20 33 -33 33 -15 0 9 2 9 8 0 5 -7 13 -9 21 -4 8 5 25 6 40 2 33 -8 53
-7 69 2 7 5 12 3 12 -4 0 -8 3 -9 13 0 8 6 17 8 21 4 10 -11 46 -11 46 0 0 5
6 5 13 -2 10 -8 17 -7 25 1 9 9 12 9 12 0 0 -10 5 -10 20 -2 11 6 20 7 20 2 0
-4 9 -8 20 -8 11 0 20 4 20 8 0 5 8 5 18 1 21 -10 43 -10 60 0 7 5 12 4 12 -2
0 -8 6 -8 18 0 15 10 17 16 8 35 -6 12 -14 20 -18 18 -3 -2 -10 0 -13 6 -5 8
-11 7 -21 -1 -9 -7 -14 -8 -14 -1 0 7 -10 8 -30 2 -19 -5 -30 -5 -30 1 0 6 -7
6 -19 -1 -14 -7 -21 -6 -25 3 -4 9 -7 9 -12 0 -3 -7 -14 -9 -32 -4 -15 5 -37
4 -50 0 -12 -5 -22 -4 -22 0 0 10 -19 9 -35 -1 -6 -4 -17 -3 -25 2 -7 4 -24 4
-37 -1 -13 -5 -23 -5 -23 0 0 10 -19 9 -37 -2 -6 -4 -13 -2 -15 3 -2 7 -8 6
-16 -2z"/>
<path d="M6224 2421 c5 -8 -11 -10 -52 -8 -55 4 -60 2 -57 -15 3 -15 1 -17 -8
-9 -9 7 -13 5 -13 -10 0 -10 4 -19 9 -19 5 0 7 -7 3 -15 -4 -13 -2 -14 14 -5
11 6 20 7 20 3 0 -5 12 -8 28 -7 15 1 27 3 27 4 0 1 10 3 22 4 12 1 20 -1 18
-4 -3 -4 11 -7 30 -6 27 1 34 5 30 16 -3 9 1 7 10 -4 11 -14 15 -16 15 -5 0
11 2 12 9 0 6 -9 16 -11 32 -5 38 12 48 13 55 3 3 -6 11 -5 20 2 11 9 14 8 14
-2 0 -12 2 -12 9 -1 6 11 10 10 15 -3 5 -14 9 -15 21 -5 8 7 15 9 15 5 0 -4 6
-2 14 4 10 8 16 9 21 1 4 -7 13 -7 27 1 18 10 20 9 14 -7 -6 -18 -5 -18 8 -1
7 9 19 17 25 17 7 0 9 5 6 10 -3 6 1 10 10 10 13 0 14 2 3 14 -7 8 -16 12 -20
10 -3 -2 -8 1 -10 8 -5 14 -78 17 -97 3 -11 -7 -13 -7 -8 1 4 7 0 14 -8 18 -8
3 -17 0 -21 -6 -4 -7 -3 -8 4 -4 7 4 12 2 12 -4 0 -8 -7 -9 -17 -5 -37 14 -66
16 -74 3 -7 -10 -9 -10 -9 0 0 6 -5 12 -11 12 -5 0 -7 -5 -3 -11 5 -8 2 -9
-12 -1 -12 7 -25 7 -36 1 -14 -8 -18 -6 -19 8 -1 12 -3 10 -9 -7 -5 -16 -8
-19 -9 -8 -1 9 -6 20 -13 24 -7 4 -8 3 -4 -4 9 -15 -9 -15 -36 -1 -15 8 -19 8
-14 0z m26 -15 c0 -3 -4 -8 -10 -11 -5 -3 -10 -1 -10 4 0 6 5 11 10 11 6 0 10
-2 10 -4z m190 -6 c8 -5 11 -10 5 -10 -5 0 -17 5 -25 10 -8 5 -10 10 -5 10 6
0 17 -5 25 -10z"/>
<path d="M6954 2419 c-3 -6 -12 -8 -20 -5 -8 3 -14 1 -14 -5 0 -6 -4 -7 -10
-4 -5 3 -10 1 -10 -5 0 -6 -5 -8 -11 -4 -8 4 -8 1 -1 -12 5 -11 8 -26 7 -35
-2 -9 3 -16 11 -16 7 0 11 4 8 9 -3 4 0 8 5 8 6 0 11 -5 11 -11 0 -8 6 -7 17
2 11 10 14 10 9 2 -4 -7 -3 -13 3 -13 5 0 12 4 15 8 6 10 42 9 52 -1 4 -4 14
-2 21 5 11 9 16 9 23 -2 7 -11 11 -11 24 -1 11 9 16 10 16 2 0 -6 5 -11 11
-11 5 0 8 4 5 8 -2 4 4 8 14 8 10 0 16 -4 14 -8 -3 -4 -1 -8 5 -8 5 0 13 5 16
10 4 7 13 6 27 -1 15 -8 19 -8 14 0 -4 6 -3 11 3 11 5 0 11 -6 14 -12 3 -10 7
-10 20 1 14 11 17 11 17 0 0 -11 2 -11 10 1 8 12 10 12 10 1 0 -11 3 -11 17 0
11 10 14 10 9 2 -4 -7 -3 -13 3 -13 5 0 12 4 15 9 7 10 25 9 43 -2 6 -4 15 -2
19 4 4 8 9 7 15 -2 7 -11 9 -11 9 1 0 13 2 13 9 1 8 -12 12 -12 25 -2 12 11
16 11 16 1 0 -10 3 -10 14 -1 8 7 17 8 20 3 6 -11 86 -9 104 2 6 3 13 2 16 -3
4 -5 14 -8 24 -6 9 2 21 4 25 4 5 1 5 6 1 13 -5 7 -3 8 5 4 7 -5 10 -15 6 -23
-5 -14 -3 -14 11 -2 20 17 42 20 50 8 3 -6 11 -5 20 2 11 9 14 9 14 -1 0 -10
3 -10 14 -1 10 9 16 9 21 1 5 -8 10 -8 20 0 10 8 14 8 17 -1 3 -8 9 -9 18 -4
17 11 50 14 50 5 0 -3 14 -6 30 -5 22 0 29 4 25 15 -3 9 1 7 10 -4 11 -14 15
-16 15 -5 0 12 2 12 10 -1 9 -13 10 -13 10 0 0 13 2 13 9 1 8 -12 12 -12 25
-2 13 11 16 11 16 0 0 -11 2 -11 10 1 8 12 10 12 10 1 0 -11 3 -11 17 0 11 10
14 10 9 2 -9 -16 6 -17 22 -1 8 8 12 8 12 1 0 -6 7 -14 16 -17 8 -3 13 -2 10
3 -3 5 1 11 9 15 8 3 15 0 15 -6 0 -6 6 -5 17 3 15 12 16 12 8 -1 -8 -13 -7
-13 8 -1 14 11 17 11 17 0 0 -11 2 -11 10 1 7 12 10 12 10 1 0 -8 6 -11 18 -6
27 11 46 13 57 6 19 -12 85 -7 90 7 3 8 0 10 -8 6 -9 -5 -9 -4 0 6 9 10 16 10
25 2 11 -8 14 -6 15 9 1 15 -3 19 -13 15 -8 -3 -12 -2 -9 3 7 12 -4 19 -38 25
-15 2 -32 8 -39 11 -7 4 -2 -3 12 -14 l25 -22 -30 13 c-16 6 -36 16 -43 21 -9
7 -11 6 -7 -4 4 -10 -1 -15 -14 -15 -11 0 -17 4 -14 9 2 4 -7 5 -21 1 -16 -4
-32 -1 -41 6 -13 11 -14 10 -10 -3 4 -8 1 -18 -5 -22 -6 -4 -9 -1 -8 7 2 9 -8
12 -35 10 -21 -2 -44 2 -52 8 -9 7 -16 6 -25 -5 -12 -14 -15 -14 -33 2 -11 10
-17 12 -13 5 6 -9 -6 -11 -48 -8 -47 3 -54 2 -48 -13 5 -13 3 -13 -13 2 -11
11 -20 15 -24 8 -4 -6 -12 -7 -21 -1 -23 15 -30 12 -23 -7 6 -17 6 -17 -10 -1
-10 10 -25 14 -38 11 -12 -4 -25 0 -30 8 -7 11 -9 10 -9 -5 0 -15 -3 -17 -12
-8 -8 8 -17 8 -31 1 -12 -7 -17 -7 -13 -1 3 5 -1 13 -10 16 -11 4 -15 2 -11
-8 4 -11 1 -13 -10 -9 -12 5 -14 3 -8 -7 5 -9 4 -11 -4 -6 -6 4 -9 11 -6 16 3
5 1 11 -5 15 -5 3 -10 -1 -10 -9 0 -8 -5 -18 -12 -22 -6 -4 -8 -3 -4 4 11 19
-12 23 -30 5 -16 -16 -17 -16 -12 -1 4 10 1 19 -8 22 -10 4 -12 2 -8 -6 5 -8
-1 -9 -20 -4 -16 4 -34 2 -41 -4 -10 -8 -19 -8 -34 -1 -27 15 -31 14 -24 -6 6
-17 5 -17 -12 0 -11 11 -20 15 -24 8 -4 -6 -12 -7 -21 -1 -22 14 -30 12 -24
-7 4 -13 3 -15 -4 -5 -9 13 -105 25 -97 12 2 -4 -2 -7 -10 -7 -8 0 -12 4 -9 9
3 4 1 8 -5 8 -5 0 -13 -4 -16 -10 -9 -15 -25 -12 -25 5 0 8 -5 15 -11 15 -5 0
-8 -4 -4 -9 3 -6 -16 -10 -45 -9 -27 0 -47 4 -44 9 3 5 0 9 -5 9 -6 0 -11 -6
-11 -14 0 -8 -5 -18 -12 -22 -6 -4 -8 -3 -4 4 11 19 -12 23 -30 5 -17 -17 -18
-17 -11 0 4 11 2 17 -9 17 -8 0 -12 -5 -8 -11 5 -8 1 -8 -13 0 -14 7 -24 7
-33 -2 -9 -8 -11 -8 -7 -1 8 15 -20 27 -29 13z m16 -9 c0 -5 -5 -10 -11 -10
-5 0 -7 5 -4 10 3 6 8 10 11 10 2 0 4 -4 4 -10z m605 -10 c3 -6 -1 -7 -9 -4
-18 7 -21 14 -7 14 6 0 13 -4 16 -10z"/>
</g>
</svg>
